G04*
G04 #@! TF.GenerationSoftware,Altium Limited,Altium Designer,22.11.1 (43)*
G04*
G04 Layer_Physical_Order=1*
G04 Layer_Color=255*
%FSLAX25Y25*%
%MOIN*%
G70*
G04*
G04 #@! TF.SameCoordinates,84F98C38-DC33-4437-A3FD-EC943A21A0DE*
G04*
G04*
G04 #@! TF.FilePolarity,Positive*
G04*
G01*
G75*
%ADD25C,0.04331*%
%ADD26R,0.04331X0.04331*%
%ADD27R,0.04724X0.04724*%
%ADD28C,0.04724*%
%ADD32C,0.06299*%
%ADD33R,0.06299X0.06299*%
%ADD36C,0.02500*%
%ADD37R,0.05512X0.05512*%
%ADD38C,0.05512*%
%ADD39R,0.05512X0.05512*%
%ADD40R,0.06693X0.06693*%
%ADD41C,0.06693*%
%ADD42C,0.05118*%
%ADD43R,0.05118X0.05118*%
%ADD44C,0.15748*%
%ADD45C,0.05315*%
%ADD46R,0.05315X0.05315*%
%ADD47R,0.05906X0.05906*%
%ADD48C,0.05906*%
%ADD49R,0.05315X0.05315*%
%ADD50C,0.07087*%
%ADD51R,0.07087X0.07087*%
G36*
X229197Y803D02*
X803D01*
Y194197D01*
X229197D01*
Y803D01*
D02*
G37*
%LPC*%
G36*
X193172Y183458D02*
X192261D01*
X191382Y183222D01*
X190594Y182767D01*
X189950Y182123D01*
X189495Y181334D01*
X189259Y180455D01*
Y179545D01*
X189495Y178665D01*
X189950Y177877D01*
X190594Y177233D01*
X191382Y176778D01*
X192261Y176542D01*
X193172D01*
X194051Y176778D01*
X194840Y177233D01*
X195483Y177877D01*
X195938Y178665D01*
X196174Y179545D01*
Y180455D01*
X195938Y181334D01*
X195483Y182123D01*
X194840Y182767D01*
X194051Y183222D01*
X193172Y183458D01*
D02*
G37*
G36*
X160741D02*
X153826D01*
Y176542D01*
X160741D01*
Y183458D01*
D02*
G37*
G36*
X123046Y181647D02*
X121954D01*
X120899Y181364D01*
X119954Y180818D01*
X119182Y180046D01*
X118636Y179101D01*
X118353Y178046D01*
Y176954D01*
X118636Y175900D01*
X119182Y174954D01*
X119954Y174182D01*
X120899Y173636D01*
X121954Y173354D01*
X123046D01*
X124100Y173636D01*
X125046Y174182D01*
X125818Y174954D01*
X126364Y175900D01*
X126646Y176954D01*
Y178046D01*
X126364Y179101D01*
X125818Y180046D01*
X125046Y180818D01*
X124100Y181364D01*
X123046Y181647D01*
D02*
G37*
G36*
X113046D02*
X111954D01*
X110899Y181364D01*
X109954Y180818D01*
X109182Y180046D01*
X108636Y179101D01*
X108353Y178046D01*
Y176954D01*
X108636Y175900D01*
X109182Y174954D01*
X109954Y174182D01*
X110899Y173636D01*
X111954Y173354D01*
X113046D01*
X114101Y173636D01*
X115046Y174182D01*
X115818Y174954D01*
X116364Y175900D01*
X116647Y176954D01*
Y178046D01*
X116364Y179101D01*
X115818Y180046D01*
X115046Y180818D01*
X114101Y181364D01*
X113046Y181647D01*
D02*
G37*
G36*
X106647D02*
X98353D01*
Y173354D01*
X106647D01*
Y181647D01*
D02*
G37*
G36*
X215854Y188674D02*
X214146D01*
X212470Y188341D01*
X210891Y187687D01*
X209471Y186738D01*
X208262Y185529D01*
X207313Y184109D01*
X206659Y182530D01*
X206326Y180854D01*
Y179146D01*
X206659Y177470D01*
X207313Y175891D01*
X208262Y174471D01*
X209471Y173263D01*
X210891Y172313D01*
X212470Y171659D01*
X214146Y171326D01*
X215854D01*
X217530Y171659D01*
X219109Y172313D01*
X220529Y173263D01*
X221738Y174471D01*
X222687Y175891D01*
X223341Y177470D01*
X223674Y179146D01*
Y180854D01*
X223341Y182530D01*
X222687Y184109D01*
X221738Y185529D01*
X220529Y186738D01*
X219109Y187687D01*
X217530Y188341D01*
X215854Y188674D01*
D02*
G37*
G36*
X18354D02*
X16646D01*
X14970Y188341D01*
X13391Y187687D01*
X11971Y186738D01*
X10763Y185529D01*
X9813Y184109D01*
X9159Y182530D01*
X8826Y180854D01*
Y179146D01*
X9159Y177470D01*
X9813Y175891D01*
X10763Y174471D01*
X11971Y173263D01*
X13391Y172313D01*
X14970Y171659D01*
X16646Y171326D01*
X18354D01*
X20030Y171659D01*
X21609Y172313D01*
X23029Y173263D01*
X24238Y174471D01*
X25187Y175891D01*
X25841Y177470D01*
X26174Y179146D01*
Y180854D01*
X25841Y182530D01*
X25187Y184109D01*
X24238Y185529D01*
X23029Y186738D01*
X21609Y187687D01*
X20030Y188341D01*
X18354Y188674D01*
D02*
G37*
G36*
X182968Y173792D02*
X182032D01*
X181128Y173550D01*
X180317Y173082D01*
X179655Y172420D01*
X179186Y171609D01*
X178944Y170704D01*
Y169768D01*
X179186Y168864D01*
X179655Y168053D01*
X180317Y167391D01*
X181128Y166923D01*
X182032Y166680D01*
X182968D01*
X183872Y166923D01*
X184683Y167391D01*
X185345Y168053D01*
X185814Y168864D01*
X186056Y169768D01*
Y170704D01*
X185814Y171609D01*
X185345Y172420D01*
X184683Y173082D01*
X183872Y173550D01*
X182968Y173792D01*
D02*
G37*
G36*
X110494Y166253D02*
X109506D01*
X108552Y165997D01*
X107696Y165503D01*
X106997Y164804D01*
X106503Y163949D01*
X106247Y162994D01*
Y162006D01*
X106503Y161051D01*
X106997Y160196D01*
X107696Y159497D01*
X108552Y159003D01*
X109506Y158747D01*
X110494D01*
X111449Y159003D01*
X112304Y159497D01*
X113003Y160196D01*
X113497Y161051D01*
X113753Y162006D01*
Y162994D01*
X113497Y163949D01*
X113003Y164804D01*
X112304Y165503D01*
X111449Y165997D01*
X110494Y166253D01*
D02*
G37*
G36*
X83753D02*
X76247D01*
Y158747D01*
X83753D01*
Y166253D01*
D02*
G37*
G36*
X182968Y163556D02*
X182032D01*
X181128Y163314D01*
X180317Y162845D01*
X179655Y162183D01*
X179186Y161372D01*
X178944Y160468D01*
Y159532D01*
X179186Y158627D01*
X179655Y157817D01*
X180317Y157155D01*
X181128Y156686D01*
X182032Y156444D01*
X182968D01*
X183872Y156686D01*
X184683Y157155D01*
X185345Y157817D01*
X185814Y158627D01*
X186056Y159532D01*
Y160468D01*
X185814Y161372D01*
X185345Y162183D01*
X184683Y162845D01*
X183872Y163314D01*
X182968Y163556D01*
D02*
G37*
G36*
X160672Y160958D02*
X159761D01*
X158882Y160722D01*
X158094Y160267D01*
X157450Y159623D01*
X156995Y158835D01*
X156759Y157955D01*
Y157045D01*
X156995Y156166D01*
X157450Y155377D01*
X158094Y154733D01*
X158882Y154278D01*
X159761Y154042D01*
X160672D01*
X161551Y154278D01*
X162339Y154733D01*
X162983Y155377D01*
X163438Y156166D01*
X163674Y157045D01*
Y157955D01*
X163438Y158835D01*
X162983Y159623D01*
X162339Y160267D01*
X161551Y160722D01*
X160672Y160958D01*
D02*
G37*
G36*
X128241D02*
X121326D01*
Y154042D01*
X128241D01*
Y160958D01*
D02*
G37*
G36*
X220387Y155465D02*
X217821D01*
Y152900D01*
X220387D01*
Y155465D01*
D02*
G37*
G36*
X217021D02*
X214456D01*
Y152900D01*
X217021D01*
Y155465D01*
D02*
G37*
G36*
X27733Y157965D02*
X26952D01*
X26198Y157763D01*
X25522Y157373D01*
X24970Y156821D01*
X24579Y156145D01*
X24377Y155390D01*
Y154610D01*
X24579Y153855D01*
X24970Y153179D01*
X25522Y152627D01*
X26198Y152237D01*
X26952Y152035D01*
X27733D01*
X28487Y152237D01*
X29163Y152627D01*
X29715Y153179D01*
X30106Y153855D01*
X30308Y154610D01*
Y155390D01*
X30106Y156145D01*
X29715Y156821D01*
X29163Y157373D01*
X28487Y157763D01*
X27733Y157965D01*
D02*
G37*
G36*
X20465D02*
X14535D01*
Y152035D01*
X20465D01*
Y157965D01*
D02*
G37*
G36*
X220387Y152100D02*
X217821D01*
Y149535D01*
X220387D01*
Y152100D01*
D02*
G37*
G36*
X217021D02*
X214456D01*
Y149535D01*
X217021D01*
Y152100D01*
D02*
G37*
G36*
X207969Y155465D02*
X207188D01*
X206434Y155263D01*
X205758Y154873D01*
X205206Y154321D01*
X204816Y153645D01*
X204613Y152890D01*
Y152110D01*
X204816Y151355D01*
X205206Y150679D01*
X205758Y150127D01*
X206434Y149737D01*
X207188Y149535D01*
X207969D01*
X208723Y149737D01*
X209400Y150127D01*
X209952Y150679D01*
X210342Y151355D01*
X210544Y152110D01*
Y152890D01*
X210342Y153645D01*
X209952Y154321D01*
X209400Y154873D01*
X208723Y155263D01*
X207969Y155465D01*
D02*
G37*
G36*
X110494Y156253D02*
X109506D01*
X108552Y155997D01*
X107696Y155503D01*
X106997Y154804D01*
X106503Y153948D01*
X106247Y152994D01*
Y152006D01*
X106503Y151051D01*
X106997Y150196D01*
X107696Y149497D01*
X108552Y149003D01*
X109506Y148747D01*
X110494D01*
X111449Y149003D01*
X112304Y149497D01*
X113003Y150196D01*
X113497Y151051D01*
X113753Y152006D01*
Y152994D01*
X113497Y153948D01*
X113003Y154804D01*
X112304Y155503D01*
X111449Y155997D01*
X110494Y156253D01*
D02*
G37*
G36*
X186056Y153320D02*
X178944D01*
Y146208D01*
X186056D01*
Y153320D01*
D02*
G37*
G36*
X55455Y151174D02*
X54545D01*
X53666Y150938D01*
X52877Y150483D01*
X52233Y149839D01*
X51778Y149051D01*
X51543Y148172D01*
Y147261D01*
X51778Y146382D01*
X52233Y145594D01*
X52877Y144950D01*
X53666Y144495D01*
X54545Y144259D01*
X55455D01*
X56335Y144495D01*
X57123Y144950D01*
X57767Y145594D01*
X58222Y146382D01*
X58457Y147261D01*
Y148172D01*
X58222Y149051D01*
X57767Y149839D01*
X57123Y150483D01*
X56335Y150938D01*
X55455Y151174D01*
D02*
G37*
G36*
X168172Y145958D02*
X167261D01*
X166382Y145722D01*
X165594Y145267D01*
X164950Y144623D01*
X164495Y143834D01*
X164259Y142955D01*
Y142045D01*
X164495Y141165D01*
X164950Y140377D01*
X165594Y139733D01*
X166382Y139278D01*
X167261Y139042D01*
X168172D01*
X169051Y139278D01*
X169840Y139733D01*
X170483Y140377D01*
X170938Y141165D01*
X171174Y142045D01*
Y142955D01*
X170938Y143834D01*
X170483Y144623D01*
X169840Y145267D01*
X169051Y145722D01*
X168172Y145958D01*
D02*
G37*
G36*
X80494Y156253D02*
X79506D01*
X78552Y155997D01*
X77696Y155503D01*
X76997Y154804D01*
X76503Y153948D01*
X76247Y152994D01*
Y152006D01*
X76503Y151051D01*
X76997Y150196D01*
X77696Y149497D01*
X78552Y149003D01*
X79506Y148747D01*
X80494D01*
X81449Y149003D01*
X82304Y149497D01*
X82608Y149801D01*
X82663Y149835D01*
X82802Y149963D01*
X82922Y150055D01*
X83055Y150137D01*
X83201Y150211D01*
X83363Y150275D01*
X83543Y150330D01*
X83741Y150374D01*
X83957Y150407D01*
X83992Y150410D01*
X89134D01*
X90548Y148996D01*
Y127362D01*
X90548Y127362D01*
X90707Y126562D01*
X91160Y125884D01*
X96022Y121022D01*
X96700Y120569D01*
X97500Y120410D01*
X97500Y120410D01*
X110000D01*
X110000Y120410D01*
X110800Y120569D01*
X111478Y121022D01*
X117910Y127454D01*
X117910Y127454D01*
X118363Y128132D01*
X118522Y128932D01*
Y135644D01*
X123289Y140410D01*
X127716D01*
X127940Y140390D01*
X128246Y140339D01*
X128485Y140275D01*
X128654Y140207D01*
X128754Y140146D01*
X128800Y140104D01*
X128815Y140081D01*
X128824Y140056D01*
X128826Y140036D01*
Y139042D01*
X135741D01*
Y145958D01*
X128826D01*
Y144964D01*
X128824Y144944D01*
X128815Y144919D01*
X128800Y144896D01*
X128754Y144854D01*
X128654Y144793D01*
X128485Y144725D01*
X128246Y144661D01*
X127940Y144610D01*
X127716Y144590D01*
X122423D01*
X122423Y144590D01*
X121623Y144431D01*
X120945Y143978D01*
X120945Y143978D01*
X114954Y137987D01*
X114501Y137309D01*
X114342Y136509D01*
X114342Y136509D01*
Y129798D01*
X109134Y124590D01*
X98366D01*
X94728Y128228D01*
Y149862D01*
X94728Y149862D01*
X94569Y150662D01*
X94116Y151340D01*
X94116Y151340D01*
X91478Y153978D01*
X90800Y154431D01*
X90000Y154590D01*
X90000Y154590D01*
X83992D01*
X83957Y154593D01*
X83741Y154626D01*
X83543Y154670D01*
X83363Y154725D01*
X83201Y154789D01*
X83055Y154863D01*
X82922Y154945D01*
X82802Y155037D01*
X82663Y155165D01*
X82608Y155199D01*
X82304Y155503D01*
X81449Y155997D01*
X80494Y156253D01*
D02*
G37*
G36*
X110494Y146253D02*
X109506D01*
X108552Y145997D01*
X107696Y145503D01*
X106997Y144804D01*
X106503Y143948D01*
X106247Y142994D01*
Y142006D01*
X106503Y141051D01*
X106997Y140196D01*
X107696Y139497D01*
X108552Y139003D01*
X109506Y138747D01*
X110494D01*
X111449Y139003D01*
X112304Y139497D01*
X113003Y140196D01*
X113497Y141051D01*
X113753Y142006D01*
Y142994D01*
X113497Y143948D01*
X113003Y144804D01*
X112304Y145503D01*
X111449Y145997D01*
X110494Y146253D01*
D02*
G37*
G36*
X177955Y136174D02*
X177045D01*
X176165Y135938D01*
X175377Y135483D01*
X174733Y134839D01*
X174278Y134051D01*
X174042Y133172D01*
Y132261D01*
X174278Y131382D01*
X174733Y130594D01*
X175377Y129950D01*
X176165Y129495D01*
X177045Y129259D01*
X177955D01*
X178834Y129495D01*
X179623Y129950D01*
X180267Y130594D01*
X180722Y131382D01*
X180957Y132261D01*
Y133172D01*
X180722Y134051D01*
X180267Y134839D01*
X179623Y135483D01*
X178834Y135938D01*
X177955Y136174D01*
D02*
G37*
G36*
X110494Y136253D02*
X109506D01*
X108552Y135997D01*
X107696Y135503D01*
X106997Y134804D01*
X106503Y133949D01*
X106247Y132994D01*
Y132006D01*
X106503Y131052D01*
X106997Y130196D01*
X107696Y129497D01*
X108552Y129003D01*
X109506Y128747D01*
X110494D01*
X111449Y129003D01*
X112304Y129497D01*
X113003Y130196D01*
X113497Y131052D01*
X113753Y132006D01*
Y132994D01*
X113497Y133949D01*
X113003Y134804D01*
X112304Y135503D01*
X111449Y135997D01*
X110494Y136253D01*
D02*
G37*
G36*
X80494D02*
X79506D01*
X78552Y135997D01*
X77696Y135503D01*
X76997Y134804D01*
X76503Y133949D01*
X76247Y132994D01*
Y132006D01*
X76503Y131052D01*
X76997Y130196D01*
X77696Y129497D01*
X78552Y129003D01*
X79506Y128747D01*
X80494D01*
X81449Y129003D01*
X82304Y129497D01*
X83003Y130196D01*
X83497Y131052D01*
X83753Y132006D01*
Y132994D01*
X83497Y133949D01*
X83003Y134804D01*
X82304Y135503D01*
X81449Y135997D01*
X80494Y136253D01*
D02*
G37*
G36*
X122942Y133359D02*
X122058D01*
X121203Y133130D01*
X120438Y132688D01*
X119812Y132062D01*
X119370Y131297D01*
X119141Y130442D01*
Y129558D01*
X119370Y128703D01*
X119812Y127937D01*
X120438Y127312D01*
X121203Y126870D01*
X122058Y126641D01*
X122942D01*
X123797Y126870D01*
X124563Y127312D01*
X125188Y127937D01*
X125630Y128703D01*
X125859Y129558D01*
Y130442D01*
X125630Y131297D01*
X125188Y132062D01*
X124563Y132688D01*
X123797Y133130D01*
X122942Y133359D01*
D02*
G37*
G36*
X24343Y133123D02*
X15657D01*
Y124436D01*
X24343D01*
Y133123D01*
D02*
G37*
G36*
X213072Y128123D02*
X211928D01*
X210823Y127827D01*
X209833Y127255D01*
X209025Y126446D01*
X208453Y125456D01*
X208157Y124351D01*
Y123208D01*
X208453Y122103D01*
X209025Y121113D01*
X209833Y120304D01*
X210823Y119732D01*
X211928Y119436D01*
X213072D01*
X214177Y119732D01*
X215167Y120304D01*
X215975Y121113D01*
X216547Y122103D01*
X216843Y123208D01*
Y124351D01*
X216547Y125456D01*
X215975Y126446D01*
X215167Y127255D01*
X214177Y127827D01*
X213072Y128123D01*
D02*
G37*
G36*
X160455Y123674D02*
X159545D01*
X158666Y123438D01*
X157877Y122983D01*
X157233Y122339D01*
X156778Y121551D01*
X156543Y120672D01*
Y119761D01*
X156778Y118882D01*
X157233Y118094D01*
X157877Y117450D01*
X158666Y116995D01*
X159545Y116759D01*
X160455D01*
X161335Y116995D01*
X162123Y117450D01*
X162767Y118094D01*
X163222Y118882D01*
X163458Y119761D01*
Y120672D01*
X163222Y121551D01*
X162767Y122339D01*
X162123Y122983D01*
X161335Y123438D01*
X160455Y123674D01*
D02*
G37*
G36*
X125859Y123359D02*
X119141D01*
Y116641D01*
X125859D01*
Y123359D01*
D02*
G37*
G36*
X20572Y119343D02*
X20400D01*
Y115400D01*
X24343D01*
Y115572D01*
X24047Y116676D01*
X23475Y117667D01*
X22667Y118475D01*
X21676Y119047D01*
X20572Y119343D01*
D02*
G37*
G36*
X19600D02*
X19428D01*
X18324Y119047D01*
X17333Y118475D01*
X16524Y117667D01*
X15953Y116676D01*
X15657Y115572D01*
Y115400D01*
X19600D01*
Y119343D01*
D02*
G37*
G36*
X24343Y114600D02*
X20400D01*
Y110657D01*
X20572D01*
X21676Y110953D01*
X22667Y111524D01*
X23475Y112333D01*
X24047Y113324D01*
X24343Y114428D01*
Y114600D01*
D02*
G37*
G36*
X19600D02*
X15657D01*
Y114428D01*
X15953Y113324D01*
X16524Y112333D01*
X17333Y111524D01*
X18324Y110953D01*
X19428Y110657D01*
X19600D01*
Y114600D01*
D02*
G37*
G36*
X155000Y115000D02*
X115000D01*
Y110751D01*
X114500Y110463D01*
X114051Y110722D01*
X113172Y110958D01*
X112261D01*
X111382Y110722D01*
X110594Y110267D01*
X109950Y109623D01*
X109495Y108835D01*
X109259Y107955D01*
Y107045D01*
X109495Y106166D01*
X109950Y105377D01*
X110594Y104733D01*
X111382Y104278D01*
X112261Y104042D01*
X113172D01*
X114051Y104278D01*
X114500Y104537D01*
X115000Y104249D01*
Y70000D01*
X155000D01*
Y115000D01*
D02*
G37*
G36*
X213072Y114343D02*
X212900D01*
Y110400D01*
X216843D01*
Y110572D01*
X216547Y111676D01*
X215975Y112667D01*
X215167Y113476D01*
X214177Y114047D01*
X213072Y114343D01*
D02*
G37*
G36*
X212100D02*
X211928D01*
X210823Y114047D01*
X209833Y113476D01*
X209025Y112667D01*
X208453Y111676D01*
X208157Y110572D01*
Y110400D01*
X212100D01*
Y114343D01*
D02*
G37*
G36*
X80494Y146253D02*
X79506D01*
X78552Y145997D01*
X77696Y145503D01*
X76997Y144804D01*
X76503Y143948D01*
X76247Y142994D01*
Y142564D01*
X76232Y142501D01*
X76225Y142313D01*
X76205Y142163D01*
X76170Y142011D01*
X76118Y141855D01*
X76049Y141695D01*
X75960Y141529D01*
X75852Y141358D01*
X75722Y141182D01*
X75700Y141155D01*
X54713Y120169D01*
X54260Y119491D01*
X54101Y118691D01*
X54101Y118691D01*
Y116852D01*
X54081Y116628D01*
X54030Y116322D01*
X53966Y116084D01*
X53898Y115915D01*
X53836Y115814D01*
X53794Y115768D01*
X53771Y115752D01*
X53745Y115743D01*
X53723Y115741D01*
X51543D01*
Y108826D01*
X58457D01*
Y114913D01*
X58461Y114931D01*
X58457Y114950D01*
Y115741D01*
X58342D01*
X58281Y116646D01*
Y117825D01*
X78655Y138199D01*
X78682Y138222D01*
X78858Y138352D01*
X79029Y138460D01*
X79195Y138549D01*
X79355Y138618D01*
X79511Y138670D01*
X79663Y138705D01*
X79813Y138725D01*
X80001Y138732D01*
X80064Y138747D01*
X80494D01*
X81449Y139003D01*
X82304Y139497D01*
X83003Y140196D01*
X83497Y141051D01*
X83753Y142006D01*
Y142994D01*
X83497Y143948D01*
X83003Y144804D01*
X82304Y145503D01*
X81449Y145997D01*
X80494Y146253D01*
D02*
G37*
G36*
X216843Y109600D02*
X212900D01*
Y105657D01*
X213072D01*
X214177Y105953D01*
X215167Y106525D01*
X215975Y107333D01*
X216547Y108324D01*
X216843Y109428D01*
Y109600D01*
D02*
G37*
G36*
X212100D02*
X208157D01*
Y109428D01*
X208453Y108324D01*
X209025Y107333D01*
X209833Y106525D01*
X210823Y105953D01*
X211928Y105657D01*
X212100D01*
Y109600D01*
D02*
G37*
G36*
X80741Y110958D02*
X73826D01*
Y104042D01*
X80741D01*
Y110958D01*
D02*
G37*
G36*
X58950Y105694D02*
X51050D01*
Y97795D01*
X58950D01*
Y105694D01*
D02*
G37*
G36*
X20572Y105564D02*
X19428D01*
X18324Y105268D01*
X17333Y104696D01*
X16524Y103887D01*
X15953Y102897D01*
X15657Y101792D01*
Y100649D01*
X15953Y99544D01*
X16524Y98554D01*
X17333Y97745D01*
X18324Y97173D01*
X19428Y96877D01*
X20572D01*
X21676Y97173D01*
X22667Y97745D01*
X23475Y98554D01*
X24047Y99544D01*
X24343Y100649D01*
Y101792D01*
X24047Y102897D01*
X23475Y103887D01*
X22667Y104696D01*
X21676Y105268D01*
X20572Y105564D01*
D02*
G37*
G36*
X180957Y100741D02*
X174042D01*
Y93826D01*
X180957D01*
Y100741D01*
D02*
G37*
G36*
X216843Y100564D02*
X208157D01*
Y91877D01*
X216843D01*
Y100564D01*
D02*
G37*
G36*
X110494Y91253D02*
X109506D01*
X108552Y90997D01*
X107696Y90503D01*
X106997Y89804D01*
X106503Y88949D01*
X106247Y87994D01*
Y87006D01*
X106503Y86051D01*
X106997Y85196D01*
X107696Y84497D01*
X108552Y84003D01*
X109506Y83747D01*
X110494D01*
X111449Y84003D01*
X112304Y84497D01*
X113003Y85196D01*
X113497Y86051D01*
X113753Y87006D01*
Y87994D01*
X113497Y88949D01*
X113003Y89804D01*
X112304Y90503D01*
X111449Y90997D01*
X110494Y91253D01*
D02*
G37*
G36*
X83753D02*
X76247D01*
Y83747D01*
X83753D01*
Y91253D01*
D02*
G37*
G36*
X163458Y88241D02*
X156543D01*
Y81326D01*
X163458D01*
Y88241D01*
D02*
G37*
G36*
X180455Y81391D02*
X179545D01*
X178665Y81155D01*
X177877Y80700D01*
X177233Y80056D01*
X176778Y79268D01*
X176542Y78388D01*
Y77478D01*
X176778Y76599D01*
X177233Y75810D01*
X177877Y75166D01*
X178665Y74711D01*
X179545Y74476D01*
X180455D01*
X181334Y74711D01*
X182123Y75166D01*
X182767Y75810D01*
X183222Y76599D01*
X183458Y77478D01*
Y78388D01*
X183222Y79268D01*
X182767Y80056D01*
X182123Y80700D01*
X181334Y81155D01*
X180455Y81391D01*
D02*
G37*
G36*
X110494Y81253D02*
X109506D01*
X108552Y80997D01*
X107696Y80503D01*
X106997Y79804D01*
X106503Y78948D01*
X106247Y77994D01*
Y77006D01*
X106503Y76051D01*
X106997Y75196D01*
X107696Y74497D01*
X108552Y74003D01*
X109506Y73747D01*
X110494D01*
X111449Y74003D01*
X112304Y74497D01*
X113003Y75196D01*
X113497Y76051D01*
X113753Y77006D01*
Y77994D01*
X113497Y78948D01*
X113003Y79804D01*
X112304Y80503D01*
X111449Y80997D01*
X110494Y81253D01*
D02*
G37*
G36*
X80494D02*
X79506D01*
X78552Y80997D01*
X77696Y80503D01*
X76997Y79804D01*
X76503Y78948D01*
X76247Y77994D01*
Y77006D01*
X76503Y76051D01*
X76997Y75196D01*
X77696Y74497D01*
X78552Y74003D01*
X79506Y73747D01*
X80494D01*
X81449Y74003D01*
X82304Y74497D01*
X83003Y75196D01*
X83497Y76051D01*
X83753Y77006D01*
Y77994D01*
X83497Y78948D01*
X83003Y79804D01*
X82304Y80503D01*
X81449Y80997D01*
X80494Y81253D01*
D02*
G37*
G36*
X17979Y72963D02*
Y70400D01*
X20541D01*
X20342Y71145D01*
X19952Y71821D01*
X19399Y72373D01*
X18723Y72763D01*
X17979Y72963D01*
D02*
G37*
G36*
X17179D02*
X16434Y72763D01*
X15758Y72373D01*
X15206Y71821D01*
X14816Y71145D01*
X14616Y70400D01*
X17179D01*
Y72963D01*
D02*
G37*
G36*
X80494Y71253D02*
X80400D01*
Y67900D01*
X83753D01*
Y67994D01*
X83497Y68949D01*
X83003Y69804D01*
X82304Y70503D01*
X81449Y70997D01*
X80494Y71253D01*
D02*
G37*
G36*
X79600D02*
X79506D01*
X78552Y70997D01*
X77696Y70503D01*
X76997Y69804D01*
X76503Y68949D01*
X76247Y67994D01*
Y67900D01*
X79600D01*
Y71253D01*
D02*
G37*
G36*
X20541Y69600D02*
X17979D01*
Y67037D01*
X18723Y67237D01*
X19399Y67627D01*
X19952Y68179D01*
X20342Y68855D01*
X20541Y69600D01*
D02*
G37*
G36*
X17179D02*
X14616D01*
X14816Y68855D01*
X15206Y68179D01*
X15758Y67627D01*
X16434Y67237D01*
X17179Y67037D01*
Y69600D01*
D02*
G37*
G36*
X30387Y72965D02*
X24456D01*
Y67035D01*
X30387D01*
Y72965D01*
D02*
G37*
G36*
X110494Y71253D02*
X109506D01*
X108552Y70997D01*
X107696Y70503D01*
X106997Y69804D01*
X106503Y68949D01*
X106247Y67994D01*
Y67006D01*
X106503Y66052D01*
X106997Y65196D01*
X107696Y64497D01*
X108552Y64003D01*
X109506Y63747D01*
X110494D01*
X111449Y64003D01*
X112304Y64497D01*
X113003Y65196D01*
X113497Y66052D01*
X113753Y67006D01*
Y67994D01*
X113497Y68949D01*
X113003Y69804D01*
X112304Y70503D01*
X111449Y70997D01*
X110494Y71253D01*
D02*
G37*
G36*
X83753Y67100D02*
X80400D01*
Y63747D01*
X80494D01*
X81449Y64003D01*
X82304Y64497D01*
X83003Y65196D01*
X83497Y66052D01*
X83753Y67006D01*
Y67100D01*
D02*
G37*
G36*
X79600D02*
X76247D01*
Y67006D01*
X76503Y66052D01*
X76997Y65196D01*
X77696Y64497D01*
X78552Y64003D01*
X79506Y63747D01*
X79600D01*
Y67100D01*
D02*
G37*
G36*
X55520Y67206D02*
X55400D01*
Y63656D01*
X58950D01*
Y63776D01*
X58680Y64780D01*
X58161Y65681D01*
X57425Y66416D01*
X56524Y66936D01*
X55520Y67206D01*
D02*
G37*
G36*
X54600D02*
X54480D01*
X53475Y66936D01*
X52575Y66416D01*
X51840Y65681D01*
X51320Y64780D01*
X51050Y63776D01*
Y63656D01*
X54600D01*
Y67206D01*
D02*
G37*
G36*
X170672Y68458D02*
X169761D01*
X168882Y68222D01*
X168094Y67767D01*
X167450Y67123D01*
X166995Y66334D01*
X166759Y65455D01*
Y64545D01*
X166995Y63665D01*
X167450Y62877D01*
X168094Y62233D01*
X168882Y61778D01*
X169761Y61542D01*
X170672D01*
X171551Y61778D01*
X172339Y62233D01*
X172983Y62877D01*
X173438Y63665D01*
X173674Y64545D01*
Y65455D01*
X173438Y66334D01*
X172983Y67123D01*
X172339Y67767D01*
X171551Y68222D01*
X170672Y68458D01*
D02*
G37*
G36*
X138241D02*
X131326D01*
Y61542D01*
X138241D01*
Y68458D01*
D02*
G37*
G36*
X217821Y62963D02*
Y60400D01*
X220384D01*
X220184Y61145D01*
X219794Y61821D01*
X219242Y62373D01*
X218566Y62763D01*
X217821Y62963D01*
D02*
G37*
G36*
X217021D02*
X216277Y62763D01*
X215600Y62373D01*
X215048Y61821D01*
X214658Y61145D01*
X214458Y60400D01*
X217021D01*
Y62963D01*
D02*
G37*
G36*
X58950Y62856D02*
X55400D01*
Y59306D01*
X55520D01*
X56524Y59575D01*
X57425Y60095D01*
X58161Y60831D01*
X58680Y61731D01*
X58950Y62736D01*
Y62856D01*
D02*
G37*
G36*
X54600D02*
X51050D01*
Y62736D01*
X51320Y61731D01*
X51840Y60831D01*
X52575Y60095D01*
X53475Y59575D01*
X54480Y59306D01*
X54600D01*
Y62856D01*
D02*
G37*
G36*
X220384Y59600D02*
X217821D01*
Y57037D01*
X218566Y57237D01*
X219242Y57627D01*
X219794Y58179D01*
X220184Y58855D01*
X220384Y59600D01*
D02*
G37*
G36*
X217021D02*
X214458D01*
X214658Y58855D01*
X215048Y58179D01*
X215600Y57627D01*
X216277Y57237D01*
X217021Y57037D01*
Y59600D01*
D02*
G37*
G36*
X210544Y62965D02*
X204613D01*
Y57035D01*
X210544D01*
Y62965D01*
D02*
G37*
G36*
X125859Y63359D02*
X119141D01*
Y56641D01*
X125859D01*
Y63359D01*
D02*
G37*
G36*
X110494Y61253D02*
X109506D01*
X108552Y60997D01*
X107696Y60503D01*
X106997Y59804D01*
X106503Y58948D01*
X106247Y57994D01*
Y57006D01*
X106503Y56051D01*
X106997Y55196D01*
X107696Y54497D01*
X108552Y54003D01*
X109506Y53747D01*
X110494D01*
X111449Y54003D01*
X112304Y54497D01*
X113003Y55196D01*
X113497Y56051D01*
X113753Y57006D01*
Y57994D01*
X113497Y58948D01*
X113003Y59804D01*
X112304Y60503D01*
X111449Y60997D01*
X110494Y61253D01*
D02*
G37*
G36*
X80494D02*
X79506D01*
X78552Y60997D01*
X77696Y60503D01*
X76997Y59804D01*
X76503Y58948D01*
X76247Y57994D01*
Y57006D01*
X76503Y56051D01*
X76997Y55196D01*
X77696Y54497D01*
X78552Y54003D01*
X79506Y53747D01*
X80494D01*
X81449Y54003D01*
X82304Y54497D01*
X83003Y55196D01*
X83497Y56051D01*
X83753Y57006D01*
Y57994D01*
X83497Y58948D01*
X83003Y59804D01*
X82304Y60503D01*
X81449Y60997D01*
X80494Y61253D01*
D02*
G37*
G36*
X122942Y53359D02*
X122058D01*
X121203Y53130D01*
X120438Y52688D01*
X119812Y52062D01*
X119370Y51297D01*
X119141Y50442D01*
Y49558D01*
X119370Y48703D01*
X119812Y47938D01*
X120438Y47312D01*
X121203Y46870D01*
X122058Y46641D01*
X122942D01*
X123797Y46870D01*
X124563Y47312D01*
X125188Y47938D01*
X125630Y48703D01*
X125859Y49558D01*
Y50442D01*
X125630Y51297D01*
X125188Y52062D01*
X124563Y52688D01*
X123797Y53130D01*
X122942Y53359D01*
D02*
G37*
G36*
X171292Y53556D02*
X164180D01*
Y46444D01*
X171292D01*
Y53556D01*
D02*
G37*
G36*
X157968D02*
X157032D01*
X156128Y53314D01*
X155317Y52845D01*
X154655Y52183D01*
X154186Y51372D01*
X153944Y50468D01*
Y49532D01*
X154186Y48627D01*
X154655Y47817D01*
X155317Y47155D01*
X156128Y46686D01*
X157032Y46444D01*
X157968D01*
X158872Y46686D01*
X159683Y47155D01*
X160345Y47817D01*
X160814Y48627D01*
X161056Y49532D01*
Y50468D01*
X160814Y51372D01*
X160345Y52183D01*
X159683Y52845D01*
X158872Y53314D01*
X157968Y53556D01*
D02*
G37*
G36*
X147732D02*
X146796D01*
X145891Y53314D01*
X145080Y52845D01*
X144418Y52183D01*
X143950Y51372D01*
X143708Y50468D01*
Y49532D01*
X143950Y48627D01*
X144418Y47817D01*
X145080Y47155D01*
X145891Y46686D01*
X146796Y46444D01*
X147732D01*
X148636Y46686D01*
X149447Y47155D01*
X150109Y47817D01*
X150577Y48627D01*
X150820Y49532D01*
Y50468D01*
X150577Y51372D01*
X150109Y52183D01*
X149447Y52845D01*
X148636Y53314D01*
X147732Y53556D01*
D02*
G37*
G36*
X43901Y44166D02*
X43884D01*
Y41404D01*
X46646D01*
Y41420D01*
X46431Y42224D01*
X46015Y42946D01*
X45426Y43534D01*
X44705Y43951D01*
X43901Y44166D01*
D02*
G37*
G36*
X43084D02*
X43068D01*
X42264Y43951D01*
X41543Y43534D01*
X40954Y42946D01*
X40538Y42224D01*
X40322Y41420D01*
Y41404D01*
X43084D01*
Y44166D01*
D02*
G37*
G36*
X183458Y45957D02*
X176542D01*
Y39042D01*
X183458D01*
Y45957D01*
D02*
G37*
G36*
X46646Y40604D02*
X43884D01*
Y37842D01*
X43901D01*
X44705Y38057D01*
X45426Y38474D01*
X46015Y39062D01*
X46431Y39783D01*
X46646Y40588D01*
Y40604D01*
D02*
G37*
G36*
X43084D02*
X40322D01*
Y40588D01*
X40538Y39783D01*
X40954Y39062D01*
X41543Y38474D01*
X42264Y38057D01*
X43068Y37842D01*
X43084D01*
Y40604D01*
D02*
G37*
G36*
X76647Y34166D02*
X70322D01*
Y27842D01*
X76647D01*
Y34166D01*
D02*
G37*
G36*
X23901D02*
X23068D01*
X22264Y33951D01*
X21543Y33534D01*
X20954Y32946D01*
X20538Y32225D01*
X20322Y31420D01*
Y30588D01*
X20538Y29783D01*
X20954Y29062D01*
X21543Y28474D01*
X22264Y28057D01*
X23068Y27842D01*
X23901D01*
X24705Y28057D01*
X25426Y28474D01*
X26015Y29062D01*
X26431Y29783D01*
X26646Y30588D01*
Y31420D01*
X26431Y32225D01*
X26015Y32946D01*
X25426Y33534D01*
X24705Y33951D01*
X23901Y34166D01*
D02*
G37*
G36*
X141647Y26646D02*
X133353D01*
Y18354D01*
X141647D01*
Y26646D01*
D02*
G37*
G36*
X128046D02*
X126954D01*
X125900Y26364D01*
X124954Y25818D01*
X124182Y25046D01*
X123636Y24101D01*
X123354Y23046D01*
Y21954D01*
X123636Y20899D01*
X124182Y19954D01*
X124954Y19182D01*
X125900Y18636D01*
X126954Y18354D01*
X128046D01*
X129101Y18636D01*
X130046Y19182D01*
X130818Y19954D01*
X131364Y20899D01*
X131647Y21954D01*
Y23046D01*
X131364Y24101D01*
X130818Y25046D01*
X130046Y25818D01*
X129101Y26364D01*
X128046Y26646D01*
D02*
G37*
G36*
X118046D02*
X116954D01*
X115900Y26364D01*
X114954Y25818D01*
X114182Y25046D01*
X113636Y24101D01*
X113354Y23046D01*
Y21954D01*
X113636Y20899D01*
X114182Y19954D01*
X114954Y19182D01*
X115900Y18636D01*
X116954Y18354D01*
X118046D01*
X119100Y18636D01*
X120046Y19182D01*
X120818Y19954D01*
X121364Y20899D01*
X121646Y21954D01*
Y23046D01*
X121364Y24101D01*
X120818Y25046D01*
X120046Y25818D01*
X119100Y26364D01*
X118046Y26646D01*
D02*
G37*
G36*
X215854Y23674D02*
X214146D01*
X212470Y23341D01*
X210891Y22687D01*
X209471Y21737D01*
X208262Y20529D01*
X207313Y19109D01*
X206659Y17530D01*
X206326Y15854D01*
Y14146D01*
X206659Y12470D01*
X207313Y10891D01*
X208262Y9471D01*
X209471Y8263D01*
X210891Y7313D01*
X212470Y6659D01*
X214146Y6326D01*
X215854D01*
X217530Y6659D01*
X219109Y7313D01*
X220529Y8263D01*
X221738Y9471D01*
X222687Y10891D01*
X223341Y12470D01*
X223674Y14146D01*
Y15854D01*
X223341Y17530D01*
X222687Y19109D01*
X221738Y20529D01*
X220529Y21737D01*
X219109Y22687D01*
X217530Y23341D01*
X215854Y23674D01*
D02*
G37*
G36*
X15854D02*
X14146D01*
X12470Y23341D01*
X10891Y22687D01*
X9471Y21737D01*
X8263Y20529D01*
X7313Y19109D01*
X6659Y17530D01*
X6326Y15854D01*
Y14146D01*
X6659Y12470D01*
X7313Y10891D01*
X8263Y9471D01*
X9471Y8263D01*
X10891Y7313D01*
X12470Y6659D01*
X14146Y6326D01*
X15854D01*
X17530Y6659D01*
X19109Y7313D01*
X20529Y8263D01*
X21737Y9471D01*
X22687Y10891D01*
X23341Y12470D01*
X23674Y14146D01*
Y15854D01*
X23341Y17530D01*
X22687Y19109D01*
X21737Y20529D01*
X20529Y21737D01*
X19109Y22687D01*
X17530Y23341D01*
X15854Y23674D01*
D02*
G37*
%LPD*%
G36*
X82276Y154412D02*
X82459Y154273D01*
X82655Y154150D01*
X82867Y154044D01*
X83094Y153954D01*
X83335Y153881D01*
X83591Y153823D01*
X83861Y153783D01*
X84147Y153758D01*
X84447Y153750D01*
Y151250D01*
X84147Y151242D01*
X83861Y151217D01*
X83591Y151177D01*
X83335Y151119D01*
X83094Y151046D01*
X82867Y150956D01*
X82655Y150850D01*
X82459Y150727D01*
X82276Y150588D01*
X82109Y150433D01*
Y154567D01*
X82276Y154412D01*
D02*
G37*
G36*
X129650Y140000D02*
X129625Y140237D01*
X129550Y140450D01*
X129424Y140638D01*
X129248Y140800D01*
X129022Y140937D01*
X128746Y141050D01*
X128419Y141138D01*
X128042Y141200D01*
X127615Y141237D01*
X127138Y141250D01*
Y143750D01*
X127615Y143763D01*
X128042Y143800D01*
X128419Y143862D01*
X128746Y143950D01*
X129022Y144062D01*
X129248Y144200D01*
X129424Y144362D01*
X129550Y144550D01*
X129625Y144763D01*
X129650Y145000D01*
Y140000D01*
D02*
G37*
G36*
X128906Y111386D02*
X129967D01*
Y110272D01*
X130975D01*
Y105763D01*
X129967D01*
Y104648D01*
X129914D01*
Y104595D01*
X129850D01*
Y99825D01*
X130300D01*
Y100275D01*
X130750D01*
Y100725D01*
X130300D01*
Y104325D01*
Y104775D01*
X130750D01*
Y100725D01*
X131650D01*
Y101175D01*
X131200D01*
Y105675D01*
X131650D01*
Y101175D01*
X132550D01*
Y101625D01*
X132100D01*
Y103425D01*
Y103875D01*
Y104775D01*
X132550D01*
Y101625D01*
X133450D01*
Y102075D01*
X133000D01*
Y106125D01*
X133450D01*
Y102075D01*
X135250D01*
Y102525D01*
X134800D01*
Y104775D01*
Y105225D01*
Y105675D01*
X135250D01*
Y102525D01*
X136150D01*
Y102075D01*
X137050D01*
Y101625D01*
X137950D01*
Y101175D01*
X138400D01*
Y101625D01*
X137950D01*
Y102075D01*
X137050D01*
Y102525D01*
X137950D01*
Y102075D01*
X139750D01*
Y101625D01*
X140650D01*
Y101175D01*
X141550D01*
Y100725D01*
X142000D01*
Y100275D01*
X142450D01*
Y99825D01*
X142900D01*
Y99375D01*
X143350D01*
Y98475D01*
X143800D01*
Y97575D01*
X144250D01*
Y96225D01*
X144700D01*
Y94425D01*
X145150D01*
Y90825D01*
X145600D01*
Y86775D01*
X146050D01*
Y78675D01*
X146500D01*
Y75525D01*
X146950D01*
Y74625D01*
Y74175D01*
Y71025D01*
X146500D01*
Y75525D01*
X146050D01*
Y77325D01*
X145600D01*
Y75525D01*
X146050D01*
Y74625D01*
X145600D01*
Y75525D01*
X145150D01*
Y74625D01*
X144700D01*
Y76425D01*
X144250D01*
Y75075D01*
X143800D01*
Y78675D01*
X143350D01*
Y76875D01*
X142900D01*
Y79125D01*
X142450D01*
Y78675D01*
Y78225D01*
X142000D01*
Y80025D01*
X141550D01*
Y81825D01*
Y82275D01*
Y82725D01*
X142000D01*
Y80025D01*
X142450D01*
Y84525D01*
X142900D01*
Y79125D01*
X143350D01*
Y85425D01*
Y85875D01*
Y87225D01*
X143800D01*
Y89025D01*
X144250D01*
Y80925D01*
X144700D01*
Y89025D01*
X144250D01*
Y91275D01*
X143800D01*
Y94425D01*
X143350D01*
Y93075D01*
X142900D01*
Y95775D01*
X142450D01*
Y97125D01*
X142000D01*
Y95775D01*
X142450D01*
Y93975D01*
X142000D01*
Y95325D01*
X141550D01*
Y94425D01*
X141100D01*
Y95775D01*
X140650D01*
Y94875D01*
X140200D01*
Y96225D01*
X139750D01*
Y94875D01*
X139300D01*
Y95775D01*
X138850D01*
Y94875D01*
X138400D01*
Y95775D01*
X137950D01*
Y94875D01*
X137500D01*
Y96225D01*
X137050D01*
Y94875D01*
X136600D01*
Y95775D01*
X136150D01*
Y94875D01*
X135700D01*
Y96225D01*
X135250D01*
Y94875D01*
X134800D01*
Y95775D01*
X134350D01*
Y94425D01*
X141100D01*
Y93975D01*
X142000D01*
Y93525D01*
X140650D01*
Y93075D01*
X139750D01*
Y92625D01*
X139300D01*
Y92175D01*
X139750D01*
Y91725D01*
X140200D01*
Y91275D01*
X139750D01*
Y90825D01*
X140200D01*
Y90375D01*
X142000D01*
Y89925D01*
X142450D01*
Y87675D01*
X142000D01*
Y86775D01*
X141550D01*
Y85875D01*
X141100D01*
Y84975D01*
X140650D01*
Y84525D01*
X140200D01*
Y84075D01*
Y83625D01*
X139750D01*
Y83175D01*
X139300D01*
Y82725D01*
X138850D01*
Y82275D01*
X136600D01*
Y82725D01*
X135700D01*
Y83175D01*
X135250D01*
Y83625D01*
X134350D01*
Y84075D01*
X133900D01*
Y85875D01*
X133450D01*
Y89925D01*
X133900D01*
Y90375D01*
X133450D01*
Y90825D01*
X133900D01*
Y90375D01*
X135700D01*
Y90825D01*
X136150D01*
Y91275D01*
X135700D01*
Y91725D01*
X133900D01*
Y91275D01*
X133450D01*
Y93075D01*
X135250D01*
Y92625D01*
X133900D01*
Y92175D01*
X135700D01*
Y91725D01*
X136150D01*
Y92175D01*
X135700D01*
Y92625D01*
X136150D01*
Y92175D01*
X137050D01*
Y92625D01*
X136600D01*
Y93075D01*
X135700D01*
Y93525D01*
X133450D01*
Y93975D01*
X134350D01*
Y94425D01*
X133450D01*
Y95775D01*
X133000D01*
Y85875D01*
X133450D01*
Y80925D01*
X133900D01*
Y76875D01*
X134350D01*
Y75075D01*
X134800D01*
Y74175D01*
X134350D01*
Y74625D01*
X133900D01*
Y76425D01*
X133450D01*
Y74625D01*
X133900D01*
Y74175D01*
X133000D01*
Y75525D01*
X132550D01*
Y77775D01*
X132100D01*
Y75525D01*
X132550D01*
Y74625D01*
X132100D01*
Y75075D01*
X131650D01*
Y77325D01*
X131200D01*
Y79575D01*
X130750D01*
Y77325D01*
X131200D01*
Y76425D01*
X130750D01*
Y76875D01*
X130300D01*
Y77775D01*
X129850D01*
Y80475D01*
X129400D01*
Y82275D01*
X128950D01*
Y80475D01*
X129400D01*
Y79125D01*
X128950D01*
Y80025D01*
X128500D01*
Y81375D01*
X128050D01*
Y84525D01*
X127600D01*
Y81375D01*
X128050D01*
Y80925D01*
X127600D01*
Y81375D01*
X127150D01*
Y82725D01*
X126700D01*
Y84075D01*
X126250D01*
Y87225D01*
X125800D01*
Y86325D01*
X125350D01*
Y84975D01*
X124900D01*
Y87225D01*
X125350D01*
Y88575D01*
X124900D01*
Y94875D01*
X125350D01*
Y89925D01*
Y89475D01*
Y88575D01*
X125800D01*
Y90375D01*
X126250D01*
Y92175D01*
X125800D01*
Y93075D01*
Y93525D01*
Y96675D01*
X126250D01*
Y92175D01*
X126700D01*
Y93525D01*
X127150D01*
Y94875D01*
X126700D01*
Y96225D01*
Y96675D01*
Y100275D01*
X127150D01*
Y94875D01*
X127600D01*
Y96225D01*
X128050D01*
Y97125D01*
X127600D01*
Y97575D01*
Y101175D01*
X128050D01*
Y97125D01*
X128500D01*
Y98025D01*
X128950D01*
Y98925D01*
X128500D01*
Y100275D01*
Y100725D01*
Y103481D01*
X127898D01*
Y102367D01*
X126837D01*
Y101253D01*
X125829D01*
Y100139D01*
X124768D01*
Y99025D01*
X123707D01*
Y100139D01*
X122646D01*
Y101253D01*
X121638D01*
Y102367D01*
X120577D01*
Y103481D01*
X119569D01*
Y104595D01*
X118561D01*
Y104648D01*
X118508D01*
Y105763D01*
X117500D01*
Y110272D01*
X118508D01*
Y111386D01*
X119569D01*
Y112500D01*
X122699D01*
Y111386D01*
X123760D01*
Y110272D01*
X124715D01*
Y111386D01*
X125776D01*
Y112500D01*
X128906D01*
Y111386D01*
D02*
G37*
G36*
X150965Y109173D02*
X151752D01*
Y108346D01*
X152500D01*
Y105000D01*
X151752D01*
Y104173D01*
X151713D01*
Y104134D01*
X150965D01*
Y103307D01*
X150216D01*
Y102480D01*
X149429D01*
Y101654D01*
X148681D01*
Y100827D01*
X147894D01*
Y100000D01*
X147106D01*
Y100827D01*
X146319D01*
Y101654D01*
X145571D01*
Y102480D01*
X144783D01*
Y103307D01*
X144035D01*
Y104134D01*
X143287D01*
Y104173D01*
X143248D01*
Y105000D01*
X142500D01*
Y108346D01*
X143248D01*
Y109173D01*
X144035D01*
Y110000D01*
X146358D01*
Y109173D01*
X147146D01*
Y108346D01*
X147854D01*
Y109173D01*
X148642D01*
Y110000D01*
X150965D01*
Y109173D01*
D02*
G37*
G36*
X137950Y105225D02*
Y104775D01*
Y102975D01*
X137500D01*
Y106575D01*
X137950D01*
Y105225D01*
D02*
G37*
G36*
X137050Y104325D02*
Y102975D01*
X136600D01*
Y104775D01*
X137050D01*
Y104325D01*
D02*
G37*
G36*
X136150D02*
Y103875D01*
Y102975D01*
X135700D01*
Y106575D01*
X136150D01*
Y104325D01*
D02*
G37*
G36*
X139750Y103875D02*
Y103425D01*
Y102525D01*
X139300D01*
Y106575D01*
X139750D01*
Y103875D01*
D02*
G37*
G36*
X138850Y102525D02*
X138400D01*
Y105225D01*
X138850D01*
Y102525D01*
D02*
G37*
G36*
X134350D02*
X133900D01*
Y102975D01*
Y107025D01*
X134350D01*
Y102525D01*
D02*
G37*
G36*
X140650Y104775D02*
Y104325D01*
Y102075D01*
X140200D01*
Y105675D01*
X140650D01*
Y104775D01*
D02*
G37*
G36*
X141550Y102525D02*
Y102075D01*
Y101625D01*
X141100D01*
Y104325D01*
X141550D01*
Y102525D01*
D02*
G37*
G36*
X142450Y103875D02*
Y103425D01*
Y100725D01*
X142000D01*
Y104775D01*
X142450D01*
Y103875D01*
D02*
G37*
G36*
X143350Y99825D02*
X142900D01*
Y102525D01*
Y102975D01*
Y103875D01*
X143350D01*
Y99825D01*
D02*
G37*
G36*
X144250Y98475D02*
X143800D01*
Y98925D01*
Y102075D01*
X144250D01*
Y98475D01*
D02*
G37*
G36*
X121732Y97087D02*
X122126D01*
Y96673D01*
X122500D01*
Y95000D01*
X122126D01*
Y94587D01*
X122106D01*
Y94567D01*
X121732D01*
Y94153D01*
X121358D01*
Y93740D01*
X120965D01*
Y93327D01*
X120591D01*
Y92913D01*
X120197D01*
Y92500D01*
X119803D01*
Y92913D01*
X119409D01*
Y93327D01*
X119035D01*
Y93740D01*
X118642D01*
Y94153D01*
X118268D01*
Y94567D01*
X117894D01*
Y94587D01*
X117874D01*
Y95000D01*
X117500D01*
Y96673D01*
X117874D01*
Y97087D01*
X118268D01*
Y97500D01*
X119429D01*
Y97087D01*
X119823D01*
Y96673D01*
X120177D01*
Y97087D01*
X120571D01*
Y97500D01*
X121732D01*
Y97087D01*
D02*
G37*
G36*
X145150Y96225D02*
X144700D01*
Y100725D01*
X145150D01*
Y96225D01*
D02*
G37*
G36*
X142450Y92175D02*
Y91725D01*
Y91275D01*
X142000D01*
Y91725D01*
X140200D01*
Y92175D01*
X141550D01*
Y92625D01*
X141100D01*
Y93075D01*
X142450D01*
Y92175D01*
D02*
G37*
G36*
X146050Y90825D02*
X145600D01*
Y97125D01*
Y97575D01*
Y98025D01*
X146050D01*
Y90825D01*
D02*
G37*
G36*
X141550D02*
X141100D01*
Y91275D01*
X141550D01*
Y90825D01*
D02*
G37*
G36*
X135250D02*
X134800D01*
Y91275D01*
X135250D01*
Y90825D01*
D02*
G37*
G36*
X142450Y90375D02*
X142000D01*
Y90825D01*
X142450D01*
Y90375D01*
D02*
G37*
G36*
X124450Y84975D02*
X124900D01*
Y83625D01*
X124450D01*
Y84075D01*
Y84525D01*
Y84975D01*
X124000D01*
Y87675D01*
Y88125D01*
Y89925D01*
X124450D01*
Y84975D01*
D02*
G37*
G36*
X126250Y83625D02*
Y83175D01*
Y82725D01*
X126700D01*
Y81825D01*
X126250D01*
Y82275D01*
X125800D01*
Y83175D01*
X125350D01*
Y83625D01*
X125800D01*
Y84075D01*
X126250D01*
Y83625D01*
D02*
G37*
G36*
X141100Y80025D02*
X141550D01*
Y79575D01*
X141100D01*
Y80025D01*
X140650D01*
Y81375D01*
X141100D01*
Y80025D01*
D02*
G37*
G36*
X146950Y85425D02*
Y84975D01*
Y78675D01*
X146500D01*
Y94875D01*
X146950D01*
Y85425D01*
D02*
G37*
G36*
X134350Y81825D02*
X134800D01*
Y82725D01*
X135250D01*
Y81375D01*
X135700D01*
Y80475D01*
X136150D01*
Y78675D01*
X135250D01*
Y79575D01*
X134800D01*
Y78225D01*
X137950D01*
Y78675D01*
X139300D01*
Y79125D01*
X139750D01*
Y77775D01*
X140200D01*
Y75525D01*
X140650D01*
Y72375D01*
X140200D01*
Y71925D01*
X139300D01*
Y71475D01*
X137950D01*
Y74175D01*
X137500D01*
Y74625D01*
X137050D01*
Y75075D01*
X136600D01*
Y75525D01*
X134800D01*
Y76875D01*
X134350D01*
Y80925D01*
X133900D01*
Y83625D01*
X134350D01*
Y81825D01*
D02*
G37*
G36*
X123550Y79575D02*
X124000D01*
Y80025D01*
X124450D01*
Y80475D01*
X124000D01*
Y82725D01*
X124450D01*
Y80475D01*
X124900D01*
Y80925D01*
X125800D01*
Y81375D01*
X127150D01*
Y80925D01*
X127600D01*
Y80475D01*
X128050D01*
Y80025D01*
X128500D01*
Y79125D01*
X128950D01*
Y76425D01*
X128500D01*
Y73725D01*
X128050D01*
Y71925D01*
X127600D01*
Y71025D01*
X122200D01*
Y72375D01*
X122650D01*
Y74625D01*
X122200D01*
Y73725D01*
X121750D01*
Y72375D01*
X121300D01*
Y71475D01*
X120850D01*
Y71025D01*
X119500D01*
Y71475D01*
X119950D01*
Y72825D01*
X119500D01*
Y79125D01*
Y79575D01*
Y81375D01*
X119950D01*
Y72825D01*
X120400D01*
Y74175D01*
X120850D01*
Y75075D01*
X120400D01*
Y80475D01*
X120850D01*
Y75075D01*
X121300D01*
Y75975D01*
X121750D01*
Y76875D01*
X121300D01*
Y80475D01*
Y80925D01*
Y82275D01*
X121750D01*
Y76875D01*
X122200D01*
Y77775D01*
X122650D01*
Y78225D01*
X122200D01*
Y84075D01*
X122650D01*
Y83625D01*
Y78225D01*
X123100D01*
Y79125D01*
X123550D01*
Y79575D01*
X123100D01*
Y82725D01*
Y83175D01*
Y88125D01*
X123550D01*
Y79575D01*
D02*
G37*
G36*
X136150Y74625D02*
X137050D01*
Y74175D01*
X137500D01*
Y71925D01*
X137050D01*
Y73275D01*
X136600D01*
Y72825D01*
X135700D01*
Y72375D01*
X136600D01*
Y71925D01*
X137050D01*
Y71475D01*
X137500D01*
Y71025D01*
X133900D01*
Y71925D01*
X133450D01*
Y71025D01*
X129400D01*
Y71475D01*
X129850D01*
Y72375D01*
X130300D01*
Y73275D01*
X130750D01*
Y73725D01*
Y74175D01*
X133000D01*
Y73725D01*
X135250D01*
Y75075D01*
X136150D01*
Y74625D01*
D02*
G37*
G36*
X146050Y73275D02*
X145600D01*
Y74175D01*
X146050D01*
Y73275D01*
D02*
G37*
G36*
X153250Y71925D02*
X152800D01*
Y72825D01*
X153250D01*
Y71925D01*
D02*
G37*
G36*
X152350Y72825D02*
Y72375D01*
Y71925D01*
X151900D01*
Y73725D01*
X152350D01*
Y72825D01*
D02*
G37*
G36*
X151450Y71925D02*
X151000D01*
Y73275D01*
Y73725D01*
Y75525D01*
X151450D01*
Y71925D01*
D02*
G37*
G36*
X150550D02*
Y71475D01*
X150100D01*
Y77775D01*
X150550D01*
Y71925D01*
D02*
G37*
G36*
X149650Y81375D02*
Y80925D01*
Y71475D01*
X149200D01*
Y83625D01*
X149650D01*
Y81375D01*
D02*
G37*
G36*
X148750Y80925D02*
Y71475D01*
X148300D01*
Y81375D01*
X148750D01*
Y80925D01*
D02*
G37*
G36*
X147850Y71475D02*
X147400D01*
Y84075D01*
Y84525D01*
Y90375D01*
X147850D01*
Y71475D01*
D02*
G37*
G36*
X154150Y71025D02*
X153700D01*
Y71475D01*
X154150D01*
Y71025D01*
D02*
G37*
G36*
X153250D02*
X152800D01*
Y71475D01*
X153250D01*
Y71025D01*
D02*
G37*
G36*
X152350D02*
X151900D01*
Y71475D01*
X152350D01*
Y71025D01*
D02*
G37*
G36*
X141100Y79125D02*
X141550D01*
Y78225D01*
X142000D01*
Y77775D01*
X142450D01*
Y76875D01*
X142900D01*
Y75975D01*
X143350D01*
Y75075D01*
X143800D01*
Y74625D01*
X144700D01*
Y74175D01*
X145150D01*
Y73275D01*
X145600D01*
Y71925D01*
X146050D01*
Y71025D01*
X142000D01*
Y71475D01*
X141550D01*
Y73275D01*
X141100D01*
Y75075D01*
Y75525D01*
X140650D01*
Y77775D01*
X140200D01*
Y79575D01*
X141100D01*
Y79125D01*
D02*
G37*
G36*
X119050Y71025D02*
X118600D01*
Y71475D01*
Y71925D01*
Y77325D01*
X119050D01*
Y71025D01*
D02*
G37*
G36*
X118150D02*
X117700D01*
Y74175D01*
Y74625D01*
X118150D01*
Y71025D01*
D02*
G37*
G36*
X117250D02*
X116800D01*
Y74625D01*
Y75075D01*
Y75525D01*
X117250D01*
Y71025D01*
D02*
G37*
G36*
X116350Y71475D02*
Y71025D01*
X115900D01*
Y73275D01*
X116350D01*
Y71475D01*
D02*
G37*
%LPC*%
G36*
X121638Y110219D02*
X119569D01*
Y107991D01*
X120577D01*
Y108044D01*
X120630D01*
Y108097D01*
Y108150D01*
Y109158D01*
X121638D01*
Y110219D01*
D02*
G37*
G36*
X120630Y106877D02*
X119569D01*
Y106664D01*
Y106611D01*
Y105763D01*
X120630D01*
Y106877D01*
D02*
G37*
G36*
X129400Y104595D02*
X128906D01*
Y103875D01*
X128950D01*
Y98925D01*
X129400D01*
Y99375D01*
X129850D01*
Y99825D01*
X129400D01*
Y104595D01*
D02*
G37*
G36*
X134350Y98025D02*
X133900D01*
Y97125D01*
X134350D01*
Y98025D01*
D02*
G37*
G36*
X133900Y97125D02*
X133450D01*
Y95775D01*
X133900D01*
Y97125D01*
D02*
G37*
G36*
X139300Y89925D02*
X138850D01*
Y88575D01*
X139300D01*
Y89925D01*
D02*
G37*
G36*
X137950Y90375D02*
X137500D01*
Y88575D01*
X137950D01*
Y89025D01*
Y89475D01*
Y90375D01*
D02*
G37*
G36*
X139300Y88125D02*
X138850D01*
Y87675D01*
X138400D01*
Y88125D01*
X137500D01*
Y87675D01*
X137050D01*
Y87225D01*
X139750D01*
Y87675D01*
X139300D01*
Y88125D01*
D02*
G37*
G36*
X138850Y86775D02*
X138400D01*
Y86325D01*
X137950D01*
Y86775D01*
X137050D01*
Y86325D01*
X136600D01*
Y85875D01*
X135700D01*
Y85425D01*
X136150D01*
Y84975D01*
X136600D01*
Y84525D01*
X137050D01*
Y84075D01*
X138850D01*
Y84525D01*
X139300D01*
Y84975D01*
X139750D01*
Y85425D01*
X140200D01*
Y85875D01*
X139300D01*
Y86325D01*
X138850D01*
Y86775D01*
D02*
G37*
G36*
X144250Y80925D02*
X143800D01*
Y78675D01*
X144250D01*
Y80925D01*
D02*
G37*
G36*
X145150Y78675D02*
X144700D01*
Y76425D01*
X145150D01*
Y78675D01*
D02*
G37*
%LPD*%
G36*
X138850Y85425D02*
X137050D01*
Y85875D01*
X138850D01*
Y85425D01*
D02*
G37*
G36*
X138400Y84525D02*
X137500D01*
Y84975D01*
X138400D01*
Y84525D01*
D02*
G37*
%LPC*%
G36*
X145571Y108307D02*
X144035D01*
Y106653D01*
X144783D01*
Y106693D01*
X144823D01*
Y106732D01*
Y106772D01*
Y107520D01*
X145571D01*
Y108307D01*
D02*
G37*
G36*
X144823Y105827D02*
X144035D01*
Y105669D01*
Y105630D01*
Y105000D01*
X144823D01*
Y105827D01*
D02*
G37*
G36*
X119035Y96653D02*
X118268D01*
Y95827D01*
X118642D01*
Y95846D01*
X118661D01*
Y95866D01*
Y95886D01*
Y96260D01*
X119035D01*
Y96653D01*
D02*
G37*
G36*
X118661Y95413D02*
X118268D01*
Y95335D01*
Y95315D01*
Y95000D01*
X118661D01*
Y95413D01*
D02*
G37*
G36*
X124000Y78675D02*
X123550D01*
Y77775D01*
X124000D01*
Y78675D01*
D02*
G37*
G36*
X123550Y77775D02*
X123100D01*
Y76425D01*
X123550D01*
Y77775D01*
D02*
G37*
G36*
X123100Y76425D02*
X122650D01*
Y74625D01*
X123100D01*
Y76425D01*
D02*
G37*
G36*
X135700Y72375D02*
X133900D01*
Y71925D01*
X135700D01*
Y72375D01*
D02*
G37*
G36*
X132100D02*
X131650D01*
Y71925D01*
X132100D01*
Y71475D01*
X133000D01*
Y71925D01*
X132100D01*
Y72375D01*
D02*
G37*
%LPD*%
G36*
X79971Y139547D02*
X79742Y139539D01*
X79515Y139508D01*
X79289Y139455D01*
X79065Y139381D01*
X78841Y139284D01*
X78618Y139166D01*
X78397Y139025D01*
X78177Y138863D01*
X77957Y138678D01*
X77740Y138472D01*
X75972Y140240D01*
X76178Y140457D01*
X76363Y140677D01*
X76525Y140897D01*
X76666Y141118D01*
X76784Y141341D01*
X76881Y141565D01*
X76955Y141789D01*
X77008Y142015D01*
X77039Y142242D01*
X77047Y142471D01*
X79971Y139547D01*
D02*
G37*
G36*
X57443Y116954D02*
X57572Y115029D01*
X57607Y114954D01*
X57645Y114929D01*
X53691Y114917D01*
X53928Y114943D01*
X54141Y115019D01*
X54328Y115145D01*
X54491Y115321D01*
X54628Y115547D01*
X54741Y115823D01*
X54828Y116149D01*
X54891Y116526D01*
X54928Y116952D01*
X54941Y117429D01*
X57441D01*
X57443Y116954D01*
D02*
G37*
D25*
X217421Y60000D02*
D03*
X17579Y70000D02*
D03*
X27343Y155000D02*
D03*
X207579Y152500D02*
D03*
D26*
Y60000D02*
D03*
X27421Y70000D02*
D03*
X17500Y155000D02*
D03*
X217421Y152500D02*
D03*
D27*
X73484Y31004D02*
D03*
D28*
X43484Y41004D02*
D03*
X23484Y31004D02*
D03*
D32*
X55000Y63256D02*
D03*
D33*
Y101744D02*
D03*
D36*
X92638Y127362D02*
X97500Y122500D01*
X92638Y127362D02*
Y149862D01*
X97500Y122500D02*
X110000D01*
X90000Y152500D02*
X92638Y149862D01*
X110000Y122500D02*
X116432Y128932D01*
Y136509D01*
X122423Y142500D02*
X132283D01*
X116432Y136509D02*
X122423Y142500D01*
X80000Y152500D02*
X90000D01*
X55000Y112284D02*
X56191Y113474D01*
Y118691D02*
X80000Y142500D01*
X56191Y113474D02*
Y118691D01*
D37*
X167736Y50000D02*
D03*
D38*
X147264D02*
D03*
X157500D02*
D03*
X182500Y170236D02*
D03*
Y160000D02*
D03*
D39*
Y149764D02*
D03*
D40*
X137500Y22500D02*
D03*
X102500Y177500D02*
D03*
D41*
X127500Y22500D02*
D03*
X117500D02*
D03*
X122500Y177500D02*
D03*
X112500D02*
D03*
D42*
X122500Y130000D02*
D03*
Y50000D02*
D03*
D43*
Y120000D02*
D03*
Y60000D02*
D03*
D44*
X15000Y15000D02*
D03*
X215000D02*
D03*
Y180000D02*
D03*
X17500D02*
D03*
D45*
X180000Y77933D02*
D03*
X192717Y180000D02*
D03*
X55000Y147716D02*
D03*
X160216Y157500D02*
D03*
X167717Y142500D02*
D03*
X112716Y107500D02*
D03*
X177500Y132717D02*
D03*
X160000Y120217D02*
D03*
X170217Y65000D02*
D03*
D46*
X180000Y42500D02*
D03*
X55000Y112284D02*
D03*
X177500Y97284D02*
D03*
X160000Y84784D02*
D03*
D47*
X80000Y162500D02*
D03*
Y87500D02*
D03*
D48*
Y152500D02*
D03*
Y142500D02*
D03*
Y132500D02*
D03*
X110000Y162500D02*
D03*
Y152500D02*
D03*
Y142500D02*
D03*
Y132500D02*
D03*
X80000Y77500D02*
D03*
Y67500D02*
D03*
Y57500D02*
D03*
X110000Y87500D02*
D03*
Y77500D02*
D03*
Y67500D02*
D03*
Y57500D02*
D03*
D49*
X157283Y180000D02*
D03*
X124784Y157500D02*
D03*
X132283Y142500D02*
D03*
X77284Y107500D02*
D03*
X134783Y65000D02*
D03*
D50*
X212500Y110000D02*
D03*
Y123779D02*
D03*
X20000Y115000D02*
D03*
Y101221D02*
D03*
D51*
X212500Y96220D02*
D03*
X20000Y128779D02*
D03*
M02*
