M48
;Layer_Color=9474304
;FILE_FORMAT=2:4
INCH,TZ
;TYPE=PLATED
T1F00S00C0.0236
T2F00S00C0.0276
T3F00S00C0.0315
T4F00S00C0.0335
T5F00S00C0.0354
T6F00S00C0.0413
T7F00S00C0.0433
T8F00S00C0.0472
T9F00S00C0.1181
%
T01
X1758Y7000
X2742
X2734Y15500
X1750
X20758Y15250
X21742
Y6000
X20758
T02
X2348Y3100
X4348Y4100
X7348Y3100
T03
X12250Y5000
Y6000
Y12000
Y13000
T04
X5500Y11228
X7728Y10750
X11272
X13228Y14250
X12478Y15750
X16022
X16000Y12022
Y8478
X13478Y6500
X5500Y14772
X16772Y14250
X17750Y13272
Y9728
X18000Y7793
X17022Y6500
X18000Y4250
X19272Y18000
X15728
T05
X8000Y5750
Y6750
Y7750
Y8750
X11000
Y7750
Y6750
Y5750
X14726Y5000
X15750
X11000Y13250
Y14250
Y15250
Y16250
X8000
Y15250
Y14250
Y13250
X18250Y14976
Y16000
X16774Y5000
X18250Y17024
T06
X5500Y6326
Y10174
T07
X11750Y2250
X12750
X13750
X12250Y17750
X11250
X10250
T08
X2000Y10122
Y11500
Y12878
X21250Y12378
Y11000
Y9622
T09
X1500Y1500
X21500
Y18000
X1750
M30
