G04*
G04 #@! TF.GenerationSoftware,Altium Limited,Altium Designer,22.11.1 (43)*
G04*
G04 Layer_Color=8388736*
%FSLAX25Y25*%
%MOIN*%
G70*
G04*
G04 #@! TF.SameCoordinates,84F98C38-DC33-4437-A3FD-EC943A21A0DE*
G04*
G04*
G04 #@! TF.FilePolarity,Negative*
G04*
G01*
G75*
%ADD15R,0.06102X0.06102*%
%ADD16C,0.06102*%
%ADD17R,0.06102X0.06102*%
%ADD18R,0.07284X0.07284*%
%ADD19C,0.07284*%
%ADD20C,0.05709*%
%ADD21R,0.05709X0.05709*%
%ADD22C,0.16339*%
%ADD23C,0.05906*%
%ADD24R,0.05906X0.05906*%
%ADD25C,0.04331*%
%ADD26R,0.04331X0.04331*%
%ADD27R,0.04724X0.04724*%
%ADD28C,0.04724*%
%ADD29R,0.06496X0.06496*%
%ADD30C,0.06496*%
%ADD31R,0.05906X0.05906*%
%ADD32C,0.06299*%
%ADD33R,0.06299X0.06299*%
%ADD34C,0.07677*%
%ADD35R,0.07677X0.07677*%
D15*
X167736Y50000D02*
D03*
D16*
X147264D02*
D03*
X157500D02*
D03*
X182500Y170236D02*
D03*
Y160000D02*
D03*
D17*
Y149764D02*
D03*
D18*
X137500Y22500D02*
D03*
X102500Y177500D02*
D03*
D19*
X127500Y22500D02*
D03*
X117500D02*
D03*
X122500Y177500D02*
D03*
X112500D02*
D03*
D20*
X122500Y130000D02*
D03*
Y50000D02*
D03*
D21*
Y120000D02*
D03*
Y60000D02*
D03*
D22*
X15000Y15000D02*
D03*
X215000D02*
D03*
Y180000D02*
D03*
X17500D02*
D03*
D23*
X180000Y77933D02*
D03*
X192717Y180000D02*
D03*
X55000Y147716D02*
D03*
X160216Y157500D02*
D03*
X167717Y142500D02*
D03*
X112716Y107500D02*
D03*
X177500Y132717D02*
D03*
X160000Y120217D02*
D03*
X170217Y65000D02*
D03*
D24*
X180000Y42500D02*
D03*
X55000Y112284D02*
D03*
X177500Y97284D02*
D03*
X160000Y84784D02*
D03*
D25*
X217421Y60000D02*
D03*
X17579Y70000D02*
D03*
X27343Y155000D02*
D03*
X207579Y152500D02*
D03*
D26*
Y60000D02*
D03*
X27421Y70000D02*
D03*
X17500Y155000D02*
D03*
X217421Y152500D02*
D03*
D27*
X73484Y31004D02*
D03*
D28*
X43484Y41004D02*
D03*
X23484Y31004D02*
D03*
D29*
X80000Y162500D02*
D03*
Y87500D02*
D03*
D30*
Y152500D02*
D03*
Y142500D02*
D03*
Y132500D02*
D03*
X110000Y162500D02*
D03*
Y152500D02*
D03*
Y142500D02*
D03*
Y132500D02*
D03*
X80000Y77500D02*
D03*
Y67500D02*
D03*
Y57500D02*
D03*
X110000Y87500D02*
D03*
Y77500D02*
D03*
Y67500D02*
D03*
Y57500D02*
D03*
D31*
X157283Y180000D02*
D03*
X124784Y157500D02*
D03*
X132283Y142500D02*
D03*
X77284Y107500D02*
D03*
X134783Y65000D02*
D03*
D32*
X55000Y63256D02*
D03*
D33*
Y101744D02*
D03*
D34*
X212500Y110000D02*
D03*
Y123779D02*
D03*
X20000Y115000D02*
D03*
Y101221D02*
D03*
D35*
X212500Y96220D02*
D03*
X20000Y128779D02*
D03*
M02*
