G04*
G04 #@! TF.GenerationSoftware,Altium Limited,Altium Designer,22.11.1 (43)*
G04*
G04 Layer_Physical_Order=2*
G04 Layer_Color=16711680*
%FSLAX25Y25*%
%MOIN*%
G70*
G04*
G04 #@! TF.SameCoordinates,84F98C38-DC33-4437-A3FD-EC943A21A0DE*
G04*
G04*
G04 #@! TF.FilePolarity,Positive*
G04*
G01*
G75*
%ADD25C,0.04331*%
%ADD26R,0.04331X0.04331*%
%ADD27R,0.04724X0.04724*%
%ADD28C,0.04724*%
%ADD32C,0.06299*%
%ADD33R,0.06299X0.06299*%
%ADD36C,0.02500*%
%ADD37R,0.05512X0.05512*%
%ADD38C,0.05512*%
%ADD39R,0.05512X0.05512*%
%ADD40R,0.06693X0.06693*%
%ADD41C,0.06693*%
%ADD42C,0.05118*%
%ADD43R,0.05118X0.05118*%
%ADD44C,0.15748*%
%ADD45C,0.05315*%
%ADD46R,0.05315X0.05315*%
%ADD47R,0.05906X0.05906*%
%ADD48C,0.05906*%
%ADD49R,0.05315X0.05315*%
%ADD50C,0.07087*%
%ADD51R,0.07087X0.07087*%
%ADD52C,0.03150*%
G36*
X229197Y803D02*
X803D01*
Y194197D01*
X229197D01*
Y803D01*
D02*
G37*
%LPC*%
G36*
X160741Y183458D02*
X153826D01*
Y180618D01*
X153817Y180534D01*
X153788Y180453D01*
X153739Y180381D01*
X153648Y180296D01*
X153488Y180199D01*
X153248Y180101D01*
X152925Y180015D01*
X152522Y179948D01*
X152224Y179921D01*
X126825D01*
X126590Y179950D01*
X126353Y179994D01*
X126143Y180049D01*
X125960Y180111D01*
X125804Y180181D01*
X125673Y180255D01*
X125564Y180333D01*
X125437Y180447D01*
X125386Y180478D01*
X125046Y180818D01*
X124100Y181364D01*
X123046Y181647D01*
X121954D01*
X120899Y181364D01*
X119954Y180818D01*
X119182Y180046D01*
X118636Y179101D01*
X118353Y178046D01*
Y176954D01*
X118636Y175900D01*
X119182Y174954D01*
X119954Y174182D01*
X120899Y173636D01*
X121954Y173354D01*
X123046D01*
X124100Y173636D01*
X125046Y174182D01*
X125386Y174522D01*
X125437Y174553D01*
X125564Y174667D01*
X125673Y174745D01*
X125804Y174819D01*
X125960Y174889D01*
X126143Y174951D01*
X126353Y175006D01*
X126579Y175048D01*
X126904Y175079D01*
X154783D01*
X155710Y175263D01*
X156496Y175788D01*
X157131Y176423D01*
X157177Y176397D01*
X157627Y176083D01*
X158591Y175268D01*
X167237Y166622D01*
X168023Y166097D01*
X168949Y165913D01*
X173163D01*
X178547Y160528D01*
X178699Y160347D01*
X178793Y160219D01*
X178865Y160108D01*
X178910Y160026D01*
X178929Y159982D01*
X178932Y159948D01*
X178944Y159909D01*
Y159532D01*
X179186Y158627D01*
X179655Y157817D01*
X180317Y157155D01*
X181128Y156686D01*
X182032Y156444D01*
X182968D01*
X183872Y156686D01*
X184683Y157155D01*
X185345Y157817D01*
X185814Y158627D01*
X186056Y159532D01*
Y160468D01*
X185814Y161372D01*
X185345Y162183D01*
X184683Y162845D01*
X183872Y163314D01*
X182968Y163556D01*
X182591D01*
X182552Y163567D01*
X182518Y163571D01*
X182474Y163590D01*
X182392Y163635D01*
X182281Y163707D01*
X182158Y163796D01*
X181922Y164003D01*
X175878Y170046D01*
X175092Y170571D01*
X174166Y170756D01*
X169952D01*
X162176Y178532D01*
X161616Y179135D01*
X161207Y179647D01*
X160886Y180107D01*
X160741Y180361D01*
Y181790D01*
X160745Y181809D01*
X160741Y181827D01*
Y183458D01*
D02*
G37*
G36*
X110000Y187421D02*
X92500D01*
X91573Y187237D01*
X90788Y186712D01*
X89394Y185318D01*
X75397D01*
X74470Y185134D01*
X73684Y184609D01*
X60788Y171712D01*
X60263Y170927D01*
X60079Y170000D01*
Y156219D01*
X55347Y151488D01*
X55114Y151301D01*
X55018Y151235D01*
X54946Y151192D01*
X54926Y151182D01*
X54900Y151174D01*
X54545D01*
X53666Y150938D01*
X52877Y150483D01*
X52626Y150232D01*
X52602Y150220D01*
X52581Y150212D01*
X52499Y150191D01*
X52399Y150173D01*
X51918Y150138D01*
X35629D01*
X30283Y155484D01*
X30106Y156145D01*
X29715Y156821D01*
X29163Y157373D01*
X28487Y157763D01*
X27733Y157965D01*
X26952D01*
X26198Y157763D01*
X25522Y157373D01*
X24970Y156821D01*
X24579Y156145D01*
X24377Y155390D01*
Y154610D01*
X24579Y153855D01*
X24970Y153179D01*
X25522Y152627D01*
X26198Y152237D01*
X26858Y152060D01*
X32914Y146004D01*
X33699Y145480D01*
X34626Y145295D01*
X48501D01*
X48693Y144833D01*
X44236Y140377D01*
X43712Y139592D01*
X43527Y138665D01*
Y138295D01*
X36433Y131201D01*
X25944D01*
X25645Y131227D01*
X25241Y131294D01*
X24918Y131381D01*
X24678Y131479D01*
X24519Y131576D01*
X24428Y131659D01*
X24381Y131731D01*
X24352Y131811D01*
X24343Y131893D01*
Y133123D01*
X15657D01*
Y124590D01*
X15000D01*
X15000Y124590D01*
X14200Y124431D01*
X13522Y123978D01*
X13522Y123978D01*
X6500Y116956D01*
X6047Y116278D01*
X5888Y115478D01*
X5888Y115478D01*
Y46510D01*
X5888Y46510D01*
X6047Y45710D01*
X6500Y45032D01*
X19955Y31577D01*
X20029Y31492D01*
X20121Y31370D01*
X20196Y31258D01*
X20250Y31164D01*
X20284Y31092D01*
X20301Y31045D01*
X20304Y31027D01*
X20309Y30969D01*
X20322Y30920D01*
Y30588D01*
X20538Y29783D01*
X20954Y29062D01*
X21543Y28474D01*
X22264Y28057D01*
X23068Y27842D01*
X23901D01*
X24705Y28057D01*
X25426Y28474D01*
X26015Y29062D01*
X26431Y29783D01*
X26646Y30588D01*
Y31420D01*
X26431Y32225D01*
X26015Y32946D01*
X25426Y33534D01*
X24705Y33951D01*
X23901Y34166D01*
X23568D01*
X23519Y34180D01*
X23461Y34184D01*
X23443Y34188D01*
X23397Y34204D01*
X23324Y34238D01*
X23230Y34292D01*
X23118Y34367D01*
X22996Y34459D01*
X22911Y34533D01*
X10068Y47376D01*
Y114612D01*
X15866Y120410D01*
X24134D01*
X49478Y95066D01*
X50156Y94613D01*
X50955Y94454D01*
X50956Y94454D01*
X66328D01*
X66328Y94454D01*
X67128Y94613D01*
X67806Y95066D01*
X75689Y102950D01*
X76161Y103388D01*
X76558Y103706D01*
X76912Y103952D01*
X77071Y104042D01*
X78155D01*
X78174Y104039D01*
X78192Y104042D01*
X80410D01*
Y102087D01*
X71022Y92699D01*
X70569Y92021D01*
X70410Y91221D01*
X70410Y91221D01*
Y85000D01*
X70410Y85000D01*
X70569Y84200D01*
X71022Y83522D01*
X75700Y78844D01*
X75722Y78818D01*
X75852Y78642D01*
X75960Y78471D01*
X76049Y78305D01*
X76118Y78145D01*
X76170Y77989D01*
X76205Y77837D01*
X76225Y77688D01*
X76232Y77499D01*
X76247Y77436D01*
Y77006D01*
X76503Y76051D01*
X76997Y75196D01*
X77696Y74497D01*
X78552Y74003D01*
X79506Y73747D01*
X80494D01*
X81449Y74003D01*
X82304Y74497D01*
X83003Y75196D01*
X83497Y76051D01*
X83753Y77006D01*
Y77994D01*
X83497Y78948D01*
X83003Y79804D01*
X82304Y80503D01*
X81449Y80997D01*
X80494Y81253D01*
X80064D01*
X80001Y81268D01*
X79813Y81275D01*
X79663Y81295D01*
X79511Y81331D01*
X79355Y81382D01*
X79195Y81451D01*
X79029Y81540D01*
X78858Y81648D01*
X78682Y81778D01*
X78655Y81801D01*
X77171Y83285D01*
X77362Y83747D01*
X83753D01*
Y91253D01*
X76247D01*
Y84862D01*
X75785Y84671D01*
X74590Y85866D01*
Y90356D01*
X83978Y99743D01*
X83978Y99743D01*
X84431Y100422D01*
X84579Y101163D01*
X85079Y101114D01*
Y66003D01*
X80830Y61754D01*
X80723Y61661D01*
X80560Y61537D01*
X80410Y61436D01*
X80280Y61360D01*
X80174Y61310D01*
X80097Y61282D01*
X80052Y61272D01*
X79969Y61266D01*
X79921Y61253D01*
X79506D01*
X78552Y60997D01*
X77696Y60503D01*
X76997Y59804D01*
X76747Y59371D01*
X76714Y59338D01*
X76675Y59280D01*
X76670Y59275D01*
X76639Y59253D01*
X76571Y59218D01*
X76464Y59177D01*
X76318Y59138D01*
X76145Y59105D01*
X75921Y59085D01*
X56626D01*
X56524Y59575D01*
X57425Y60095D01*
X58161Y60831D01*
X58680Y61731D01*
X58950Y62736D01*
Y62856D01*
X55000D01*
X51050D01*
Y62736D01*
X51320Y61731D01*
X51840Y60831D01*
X52575Y60095D01*
X53475Y59575D01*
X53374Y59085D01*
X51839D01*
X30462Y80462D01*
X22421Y88503D01*
Y96533D01*
X22422Y96546D01*
X22461Y96821D01*
X22512Y97073D01*
X22577Y97299D01*
X22653Y97502D01*
X22738Y97682D01*
X22833Y97842D01*
X22938Y97982D01*
X23081Y98138D01*
X23114Y98192D01*
X23475Y98554D01*
X24047Y99544D01*
X24343Y100649D01*
Y101792D01*
X24047Y102897D01*
X23475Y103887D01*
X22667Y104696D01*
X21676Y105268D01*
X20572Y105564D01*
X19428D01*
X18324Y105268D01*
X17333Y104696D01*
X16524Y103887D01*
X15953Y102897D01*
X15657Y101792D01*
Y100649D01*
X15953Y99544D01*
X16524Y98554D01*
X16886Y98192D01*
X16919Y98138D01*
X17062Y97982D01*
X17166Y97842D01*
X17262Y97682D01*
X17347Y97502D01*
X17423Y97299D01*
X17488Y97073D01*
X17539Y96821D01*
X17578Y96545D01*
X17579Y96533D01*
Y87500D01*
X17763Y86573D01*
X18288Y85788D01*
X25402Y78674D01*
X25184Y78348D01*
X25000Y77421D01*
Y74103D01*
X24943Y73380D01*
X24900Y73091D01*
X24871Y72965D01*
X24456D01*
Y72172D01*
X24452Y72153D01*
X24456Y72135D01*
Y67035D01*
X30387D01*
Y72135D01*
X30390Y72153D01*
X30387Y72172D01*
Y72965D01*
X29971D01*
X29949Y73063D01*
X29915Y73497D01*
X30369Y73707D01*
X49124Y54952D01*
X49910Y54427D01*
X50836Y54242D01*
X77698D01*
X78003Y54217D01*
X78121Y54201D01*
X78199Y54186D01*
X78218Y54181D01*
X78242Y54171D01*
X78272Y54164D01*
X78552Y54003D01*
X79506Y53747D01*
X80494D01*
X81449Y54003D01*
X82304Y54497D01*
X82598Y54791D01*
X82641Y54815D01*
X82704Y54869D01*
X82743Y54894D01*
X82817Y54929D01*
X82927Y54968D01*
X83073Y55007D01*
X83251Y55041D01*
X83453Y55069D01*
X83594Y55079D01*
X86497D01*
X101997Y39579D01*
X102782Y39054D01*
X103709Y38870D01*
X103709Y38870D01*
X107706D01*
X122730Y23846D01*
X122875Y23660D01*
X123012Y23461D01*
X123122Y23274D01*
X123207Y23100D01*
X123268Y22941D01*
X123309Y22795D01*
X123331Y22663D01*
X123339Y22493D01*
X123354Y22435D01*
Y21954D01*
X123636Y20899D01*
X124182Y19954D01*
X124954Y19182D01*
X125900Y18636D01*
X126954Y18354D01*
X128046D01*
X129101Y18636D01*
X130046Y19182D01*
X130818Y19954D01*
X131364Y20899D01*
X131647Y21954D01*
Y23046D01*
X131364Y24101D01*
X130818Y25046D01*
X130046Y25818D01*
X129101Y26364D01*
X128046Y26646D01*
X127565D01*
X127507Y26661D01*
X127337Y26669D01*
X127205Y26691D01*
X127059Y26732D01*
X126900Y26793D01*
X126726Y26878D01*
X126539Y26989D01*
X126350Y27119D01*
X126098Y27326D01*
X110421Y43003D01*
X109635Y43528D01*
X108709Y43713D01*
X104712D01*
X89212Y59212D01*
X88427Y59737D01*
X87500Y59921D01*
X86499D01*
X86308Y60383D01*
X89212Y63288D01*
X89737Y64073D01*
X89921Y65000D01*
Y125000D01*
X89737Y125927D01*
X89212Y126712D01*
X84254Y131670D01*
X84161Y131777D01*
X84038Y131939D01*
X83936Y132090D01*
X83860Y132220D01*
X83810Y132326D01*
X83782Y132403D01*
X83772Y132448D01*
X83766Y132531D01*
X83753Y132579D01*
Y132994D01*
X83497Y133949D01*
X83003Y134804D01*
X82304Y135503D01*
X81449Y135997D01*
X80494Y136253D01*
X79506D01*
X78552Y135997D01*
X77696Y135503D01*
X76997Y134804D01*
X76503Y133949D01*
X76247Y132994D01*
Y132006D01*
X76503Y131052D01*
X76997Y130196D01*
X77696Y129497D01*
X78552Y129003D01*
X79506Y128747D01*
X79921D01*
X79969Y128734D01*
X80052Y128728D01*
X80097Y128718D01*
X80174Y128690D01*
X80280Y128640D01*
X80410Y128564D01*
X80560Y128463D01*
X80723Y128339D01*
X80830Y128246D01*
X85079Y123997D01*
Y120107D01*
X84579Y120058D01*
X84431Y120800D01*
X83978Y121478D01*
X83978Y121478D01*
X74590Y130866D01*
Y167670D01*
X74830Y167910D01*
X81634D01*
X82829Y166715D01*
X82638Y166253D01*
X76247D01*
Y158747D01*
X83753D01*
Y165138D01*
X84215Y165329D01*
X94773Y154771D01*
Y63562D01*
X94773Y63562D01*
X94932Y62762D01*
X95385Y62084D01*
X108947Y48522D01*
X109625Y48069D01*
X110425Y47910D01*
X119239D01*
X119383Y47894D01*
X119555Y47864D01*
X119702Y47829D01*
X119824Y47789D01*
X119922Y47748D01*
X119997Y47708D01*
X120051Y47670D01*
X120129Y47601D01*
X120178Y47572D01*
X120438Y47312D01*
X121203Y46870D01*
X122058Y46641D01*
X122942D01*
X123797Y46870D01*
X124563Y47312D01*
X125188Y47938D01*
X125630Y48703D01*
X125859Y49558D01*
Y49925D01*
X125873Y49981D01*
X125879Y50084D01*
X125891Y50149D01*
X125915Y50230D01*
X125955Y50329D01*
X126014Y50443D01*
X126093Y50573D01*
X126187Y50706D01*
X126321Y50865D01*
X129363Y53907D01*
X135997D01*
X135997Y53907D01*
X136797Y54066D01*
X137475Y54519D01*
X153978Y71022D01*
X153978Y71022D01*
X154431Y71700D01*
X154590Y72500D01*
Y86652D01*
X156043Y88105D01*
X156543Y87898D01*
Y82156D01*
X156539Y82138D01*
X156543Y82120D01*
Y81326D01*
X157268D01*
X157270Y81326D01*
X157313Y81257D01*
X157385Y81084D01*
X157458Y80821D01*
X157519Y80487D01*
X157579Y79789D01*
Y73503D01*
X145552Y61476D01*
X145027Y60690D01*
X144843Y59764D01*
Y53169D01*
X144822Y52933D01*
X144798Y52776D01*
X144770Y52647D01*
X144744Y52557D01*
X144726Y52512D01*
X144704Y52486D01*
X144685Y52450D01*
X144418Y52183D01*
X143950Y51372D01*
X143708Y50468D01*
Y49532D01*
X143950Y48627D01*
X144418Y47817D01*
X145080Y47155D01*
X145891Y46686D01*
X146796Y46444D01*
X147732D01*
X148636Y46686D01*
X149447Y47155D01*
X150109Y47817D01*
X150577Y48627D01*
X150820Y49532D01*
Y50468D01*
X150577Y51372D01*
X150109Y52183D01*
X149842Y52450D01*
X149823Y52486D01*
X149802Y52512D01*
X149784Y52557D01*
X149757Y52647D01*
X149730Y52776D01*
X149707Y52926D01*
X149685Y53239D01*
Y58761D01*
X155287Y64363D01*
X155676Y64044D01*
X155263Y63427D01*
X155079Y62500D01*
Y52608D01*
X154655Y52183D01*
X154186Y51372D01*
X153944Y50468D01*
Y49532D01*
X154186Y48627D01*
X154655Y47817D01*
X155317Y47155D01*
X155506Y47045D01*
X155512Y47038D01*
X155529Y47024D01*
X155534Y47016D01*
X155560Y46952D01*
X155591Y46847D01*
X155622Y46701D01*
X155647Y46529D01*
X155655Y46420D01*
Y44424D01*
X155839Y43497D01*
X156364Y42712D01*
X161004Y38071D01*
X161790Y37546D01*
X162716Y37362D01*
X171043D01*
X171970Y37546D01*
X172755Y38071D01*
X173680Y38996D01*
X178917D01*
X179151Y39042D01*
X183458D01*
Y45957D01*
X176542D01*
Y44534D01*
X176534Y44451D01*
X176505Y44370D01*
X176456Y44298D01*
X176365Y44213D01*
X176206Y44117D01*
X175966Y44019D01*
X175643Y43932D01*
X175239Y43865D01*
X174941Y43839D01*
X172677D01*
X171750Y43654D01*
X170965Y43130D01*
X170040Y42205D01*
X163719D01*
X160498Y45427D01*
Y47765D01*
X160515Y47989D01*
X160529Y48088D01*
X160539Y48144D01*
X160544Y48161D01*
X160814Y48627D01*
X161056Y49532D01*
Y50468D01*
X160814Y51372D01*
X160345Y52183D01*
X159921Y52608D01*
Y61497D01*
X168503Y70079D01*
X173371D01*
X197579Y45871D01*
Y41107D01*
X197079Y40956D01*
X196801Y41372D01*
X174131Y64042D01*
X174025Y64178D01*
X173923Y64327D01*
X173841Y64464D01*
X173780Y64590D01*
X173737Y64702D01*
X173709Y64801D01*
X173695Y64888D01*
X173689Y65014D01*
X173674Y65072D01*
Y65455D01*
X173438Y66334D01*
X172983Y67123D01*
X172339Y67767D01*
X171551Y68222D01*
X170672Y68458D01*
X169761D01*
X168882Y68222D01*
X168094Y67767D01*
X167450Y67123D01*
X166995Y66334D01*
X166759Y65455D01*
Y64545D01*
X166880Y64093D01*
X166880Y64048D01*
X166885Y64025D01*
X166873Y63989D01*
X166838Y63915D01*
X166779Y63814D01*
X166700Y63700D01*
X166581Y63559D01*
X166258Y63236D01*
X165805Y62558D01*
X165646Y61758D01*
X165646Y61758D01*
Y54666D01*
X165626Y54442D01*
X165576Y54136D01*
X165512Y53897D01*
X165443Y53728D01*
X165382Y53627D01*
X165340Y53582D01*
X165317Y53567D01*
X165292Y53558D01*
X165272Y53556D01*
X164180D01*
Y46444D01*
X171292D01*
Y53556D01*
X170201D01*
X170180Y53558D01*
X170155Y53567D01*
X170133Y53582D01*
X170091Y53627D01*
X170030Y53728D01*
X169961Y53897D01*
X169897Y54136D01*
X169846Y54442D01*
X169826Y54666D01*
Y60892D01*
X170104Y61170D01*
X170386Y61399D01*
X170490Y61472D01*
X170506Y61482D01*
X170514Y61480D01*
X170627Y61436D01*
X170752Y61375D01*
X170890Y61294D01*
X171030Y61198D01*
X171218Y61043D01*
X193119Y39141D01*
Y38575D01*
X187071Y32527D01*
X145437D01*
X144637Y32368D01*
X143959Y31915D01*
X143959Y31915D01*
X139779Y27735D01*
X139309Y27299D01*
X138911Y26979D01*
X138556Y26731D01*
X138408Y26646D01*
X133353D01*
Y24066D01*
X133313Y23864D01*
X133353Y23662D01*
Y18354D01*
X141647D01*
Y23408D01*
X141731Y23556D01*
X141973Y23902D01*
X142612Y24656D01*
X146302Y28346D01*
X187937D01*
X187937Y28346D01*
X188736Y28506D01*
X189415Y28959D01*
X196801Y36345D01*
X196801Y36345D01*
X197079Y36761D01*
X197579Y36609D01*
Y36003D01*
X178997Y17421D01*
X126003D01*
X122270Y21154D01*
X122125Y21340D01*
X121988Y21539D01*
X121878Y21726D01*
X121793Y21900D01*
X121732Y22059D01*
X121691Y22205D01*
X121669Y22337D01*
X121661Y22507D01*
X121646Y22565D01*
Y23046D01*
X121364Y24101D01*
X120818Y25046D01*
X120046Y25818D01*
X119100Y26364D01*
X118046Y26646D01*
X116954D01*
X115900Y26364D01*
X114954Y25818D01*
X114182Y25046D01*
X113636Y24101D01*
X113354Y23046D01*
Y21954D01*
X113636Y20899D01*
X114182Y19954D01*
X114954Y19182D01*
X115900Y18636D01*
X116954Y18354D01*
X117435D01*
X117493Y18339D01*
X117663Y18331D01*
X117795Y18309D01*
X117941Y18268D01*
X118101Y18207D01*
X118274Y18122D01*
X118461Y18011D01*
X118650Y17882D01*
X118902Y17674D01*
X123288Y13288D01*
X124073Y12763D01*
X125000Y12579D01*
X180000D01*
X180927Y12763D01*
X181712Y13288D01*
X201712Y33288D01*
X202237Y34073D01*
X202421Y35000D01*
Y46874D01*
X202237Y47800D01*
X201712Y48586D01*
X176086Y74212D01*
X175301Y74737D01*
X174374Y74921D01*
X167500D01*
X166573Y74737D01*
X165788Y74212D01*
X162213Y70637D01*
X161824Y70956D01*
X162237Y71573D01*
X162421Y72500D01*
X162421Y72500D01*
Y79898D01*
X162431Y80052D01*
X162478Y80475D01*
X162542Y80821D01*
X162615Y81084D01*
X162687Y81257D01*
X162730Y81326D01*
X162732Y81326D01*
X163458D01*
Y82051D01*
X163458Y82053D01*
X163526Y82096D01*
X163700Y82169D01*
X163962Y82242D01*
X164297Y82303D01*
X164994Y82362D01*
X169430D01*
X170596Y81196D01*
X171382Y80671D01*
X172308Y80487D01*
X173533D01*
X176353Y77666D01*
X176517Y77468D01*
X176562Y77406D01*
X176778Y76599D01*
X177233Y75810D01*
X177877Y75166D01*
X178665Y74711D01*
X179545Y74476D01*
X180455D01*
X180490Y74485D01*
X180521Y74469D01*
X180615Y74413D01*
X180722Y74338D01*
X180964Y74130D01*
X181590Y73504D01*
X182376Y72979D01*
X183302Y72795D01*
X191359D01*
X203161Y60993D01*
X203366Y60755D01*
X203670Y60357D01*
X203928Y59968D01*
X204143Y59589D01*
X204315Y59221D01*
X204446Y58863D01*
X204537Y58516D01*
X204591Y58178D01*
X204611Y57803D01*
X204613Y57793D01*
Y57035D01*
X205407D01*
X205425Y57031D01*
X205444Y57035D01*
X205451D01*
X205469Y57032D01*
X205479Y57035D01*
X210544D01*
Y62100D01*
X210547Y62110D01*
X210544Y62127D01*
Y62135D01*
X210548Y62153D01*
X210544Y62172D01*
Y62965D01*
X209785D01*
X209775Y62968D01*
X209401Y62988D01*
X209063Y63042D01*
X208716Y63133D01*
X208358Y63264D01*
X207990Y63436D01*
X207611Y63650D01*
X207232Y63902D01*
X206537Y64466D01*
X194074Y76929D01*
X193289Y77454D01*
X192362Y77638D01*
X184326D01*
X183986Y78006D01*
X186467Y80487D01*
X187692D01*
X188618Y80671D01*
X189404Y81196D01*
X202007Y93799D01*
X206556D01*
X206855Y93773D01*
X207259Y93706D01*
X207582Y93619D01*
X207822Y93521D01*
X207981Y93424D01*
X208072Y93340D01*
X208120Y93269D01*
X208148Y93189D01*
X208157Y93107D01*
Y91877D01*
X216843D01*
Y100564D01*
X208157D01*
Y99334D01*
X208148Y99252D01*
X208120Y99172D01*
X208072Y99101D01*
X207981Y99016D01*
X207822Y98920D01*
X207582Y98822D01*
X207259Y98735D01*
X206855Y98668D01*
X206556Y98642D01*
X201004D01*
X200077Y98457D01*
X199292Y97933D01*
X186689Y85330D01*
X185465D01*
X184538Y85145D01*
X183752Y84620D01*
X180831Y81699D01*
X180654Y81552D01*
X180539Y81471D01*
X180443Y81411D01*
X180401Y81391D01*
X179599D01*
X179557Y81411D01*
X179461Y81471D01*
X179353Y81548D01*
X179119Y81749D01*
X176248Y84620D01*
X175462Y85145D01*
X174536Y85330D01*
X173311D01*
X172145Y86496D01*
X171360Y87020D01*
X170433Y87205D01*
X164885D01*
X164732Y87214D01*
X164308Y87262D01*
X163962Y87325D01*
X163700Y87398D01*
X163526Y87470D01*
X163458Y87514D01*
X163458Y87515D01*
Y88241D01*
X162664D01*
X162645Y88245D01*
X162627Y88241D01*
X156904D01*
X156697Y88741D01*
X163149Y95193D01*
X172933D01*
X173156Y95174D01*
X173463Y95123D01*
X173702Y95059D01*
X173871Y94990D01*
X173971Y94929D01*
X174016Y94887D01*
X174031Y94864D01*
X174040Y94839D01*
X174042Y94819D01*
Y93826D01*
X180957D01*
Y100741D01*
X177281D01*
X177133Y100826D01*
X176787Y101067D01*
X176033Y101706D01*
X162629Y115111D01*
Y117238D01*
X162664Y117576D01*
X162693Y117743D01*
X162728Y117896D01*
X162767Y118026D01*
X162807Y118133D01*
X162847Y118217D01*
X162906Y118317D01*
X162924Y118366D01*
X163222Y118882D01*
X163458Y119761D01*
Y120672D01*
X163222Y121551D01*
X162767Y122339D01*
X162123Y122983D01*
X161335Y123438D01*
X160455Y123674D01*
X159545D01*
X158666Y123438D01*
X157877Y122983D01*
X157233Y122339D01*
X156778Y121551D01*
X156543Y120672D01*
Y119761D01*
X156778Y118882D01*
X157233Y118094D01*
X157877Y117450D01*
X158060Y117345D01*
X158074Y117328D01*
X158166Y117259D01*
X158209Y117216D01*
X158254Y117158D01*
X158299Y117080D01*
X158344Y116978D01*
X158386Y116849D01*
X158421Y116692D01*
X158449Y116512D01*
Y114245D01*
X158448Y114245D01*
X158607Y113445D01*
X159061Y112767D01*
X171992Y99836D01*
X171801Y99374D01*
X162284D01*
X162284Y99374D01*
X161484Y99215D01*
X160805Y98761D01*
X160805Y98761D01*
X153559Y91514D01*
X153504Y91478D01*
X151022Y88996D01*
X150569Y88318D01*
X150410Y87518D01*
X150410Y87518D01*
Y73366D01*
X138741Y61697D01*
X138241Y61904D01*
Y68458D01*
X134564D01*
X134417Y68542D01*
X134071Y68784D01*
X133317Y69423D01*
X131261Y71478D01*
X130583Y71931D01*
X129783Y72090D01*
X129783Y72090D01*
X123399D01*
X122599Y71931D01*
X121921Y71478D01*
X121921Y71478D01*
X120033Y69590D01*
X113992D01*
X113957Y69593D01*
X113741Y69626D01*
X113543Y69670D01*
X113363Y69725D01*
X113201Y69789D01*
X113055Y69863D01*
X112922Y69945D01*
X112802Y70037D01*
X112663Y70165D01*
X112608Y70199D01*
X112304Y70503D01*
X111449Y70997D01*
X110494Y71253D01*
X109506D01*
X108552Y70997D01*
X107696Y70503D01*
X106997Y69804D01*
X106503Y68949D01*
X106247Y67994D01*
Y67006D01*
X106503Y66052D01*
X106997Y65196D01*
X107696Y64497D01*
X108552Y64003D01*
X109506Y63747D01*
X109936D01*
X109999Y63732D01*
X110187Y63725D01*
X110337Y63705D01*
X110489Y63670D01*
X110645Y63618D01*
X110805Y63549D01*
X110971Y63460D01*
X111142Y63352D01*
X111318Y63222D01*
X111345Y63200D01*
X116022Y58522D01*
X116700Y58069D01*
X117500Y57910D01*
X118078D01*
X118287Y57892D01*
X118588Y57843D01*
X118822Y57781D01*
X118986Y57716D01*
X119083Y57658D01*
X119124Y57621D01*
X119134Y57605D01*
X119140Y57591D01*
X119141Y57580D01*
Y56641D01*
X125478D01*
X125685Y56141D01*
X123328Y53784D01*
X123214Y53693D01*
X123072Y53593D01*
X122943Y53514D01*
X122829Y53455D01*
X122731Y53415D01*
X122649Y53391D01*
X122584Y53379D01*
X122480Y53373D01*
X122425Y53359D01*
X122058D01*
X121203Y53130D01*
X120438Y52688D01*
X120178Y52428D01*
X120129Y52399D01*
X120051Y52330D01*
X119997Y52292D01*
X119922Y52252D01*
X119824Y52211D01*
X119702Y52171D01*
X119555Y52136D01*
X119394Y52108D01*
X119187Y52090D01*
X111291D01*
X110096Y53285D01*
X110287Y53747D01*
X110494D01*
X111449Y54003D01*
X112304Y54497D01*
X113003Y55196D01*
X113497Y56051D01*
X113753Y57006D01*
Y57994D01*
X113497Y58948D01*
X113003Y59804D01*
X112304Y60503D01*
X111449Y60997D01*
X110494Y61253D01*
X109506D01*
X108552Y60997D01*
X107696Y60503D01*
X106997Y59804D01*
X106503Y58948D01*
X106247Y57994D01*
Y57787D01*
X105785Y57596D01*
X98953Y64428D01*
Y155637D01*
X98953Y155637D01*
X98794Y156437D01*
X98341Y157115D01*
X98341Y157115D01*
X83978Y171478D01*
X83300Y171931D01*
X82500Y172090D01*
X82500Y172090D01*
X73965D01*
X73165Y171931D01*
X72487Y171478D01*
X72487Y171478D01*
X71022Y170013D01*
X70569Y169335D01*
X70410Y168535D01*
X70410Y168535D01*
Y130000D01*
X70410Y130000D01*
X70569Y129200D01*
X71022Y128522D01*
X80410Y119134D01*
Y110958D01*
X73826D01*
Y108408D01*
X73822Y108390D01*
X73826Y108372D01*
Y107287D01*
X73736Y107129D01*
X73495Y106784D01*
X72858Y106030D01*
X65462Y98635D01*
X58950D01*
Y105694D01*
X57464D01*
X57444Y105696D01*
X57419Y105705D01*
X57396Y105720D01*
X57354Y105765D01*
X57293Y105866D01*
X57225Y106034D01*
X57161Y106273D01*
X57110Y106580D01*
X57090Y106804D01*
Y107713D01*
X57110Y107935D01*
X57161Y108239D01*
X57224Y108476D01*
X57293Y108643D01*
X57353Y108743D01*
X57395Y108788D01*
X57418Y108803D01*
X57443Y108812D01*
X57578Y108826D01*
X58457D01*
Y115741D01*
X51543D01*
Y108826D01*
X52422D01*
X52557Y108812D01*
X52582Y108803D01*
X52605Y108788D01*
X52647Y108743D01*
X52707Y108643D01*
X52776Y108476D01*
X52839Y108239D01*
X52890Y107935D01*
X52910Y107713D01*
Y106804D01*
X52890Y106580D01*
X52839Y106273D01*
X52775Y106034D01*
X52707Y105866D01*
X52645Y105765D01*
X52604Y105720D01*
X52581Y105705D01*
X52556Y105696D01*
X52536Y105694D01*
X51050D01*
Y100059D01*
X50589Y99867D01*
X26478Y123978D01*
X25800Y124431D01*
X25000Y124590D01*
X25000Y124590D01*
X24343D01*
Y125666D01*
X24352Y125748D01*
X24381Y125828D01*
X24428Y125900D01*
X24519Y125984D01*
X24678Y126080D01*
X24918Y126178D01*
X25241Y126265D01*
X25645Y126332D01*
X25944Y126358D01*
X37436D01*
X38363Y126542D01*
X39148Y127067D01*
X47661Y135580D01*
X48186Y136366D01*
X48370Y137292D01*
Y137662D01*
X54653Y143945D01*
X54886Y144132D01*
X54982Y144198D01*
X55054Y144241D01*
X55075Y144251D01*
X55099Y144259D01*
X55455D01*
X56335Y144495D01*
X57123Y144950D01*
X57767Y145594D01*
X58222Y146382D01*
X58457Y147261D01*
Y147617D01*
X58466Y147642D01*
X58475Y147662D01*
X58518Y147735D01*
X58576Y147819D01*
X58891Y148184D01*
X64212Y153504D01*
X64737Y154290D01*
X64921Y155217D01*
Y168997D01*
X76399Y180475D01*
X83299D01*
X83709Y180403D01*
X84057Y180287D01*
X84336Y180137D01*
X84558Y179955D01*
X84740Y179732D01*
X84890Y179454D01*
X85006Y179105D01*
X85079Y178695D01*
Y175000D01*
X85263Y174073D01*
X85788Y173288D01*
X105746Y153330D01*
X105839Y153223D01*
X105963Y153060D01*
X106064Y152910D01*
X106140Y152780D01*
X106190Y152674D01*
X106218Y152597D01*
X106228Y152552D01*
X106232Y152500D01*
X106228Y152448D01*
X106218Y152403D01*
X106190Y152326D01*
X106140Y152220D01*
X106064Y152090D01*
X105963Y151939D01*
X105839Y151777D01*
X105746Y151671D01*
X100788Y146712D01*
X100263Y145927D01*
X100079Y145000D01*
Y85000D01*
X100263Y84073D01*
X100788Y83288D01*
X105746Y78329D01*
X105839Y78223D01*
X105963Y78061D01*
X106064Y77910D01*
X106140Y77780D01*
X106190Y77674D01*
X106218Y77597D01*
X106228Y77552D01*
X106234Y77469D01*
X106247Y77421D01*
Y77006D01*
X106503Y76051D01*
X106997Y75196D01*
X107696Y74497D01*
X108552Y74003D01*
X109506Y73747D01*
X110494D01*
X111449Y74003D01*
X112304Y74497D01*
X113003Y75196D01*
X113497Y76051D01*
X113753Y77006D01*
Y77994D01*
X113497Y78948D01*
X113003Y79804D01*
X112304Y80503D01*
X111449Y80997D01*
X110494Y81253D01*
X110079D01*
X110031Y81266D01*
X109948Y81272D01*
X109903Y81282D01*
X109826Y81310D01*
X109720Y81360D01*
X109590Y81436D01*
X109440Y81537D01*
X109277Y81661D01*
X109170Y81754D01*
X104921Y86003D01*
Y143997D01*
X109170Y148246D01*
X109277Y148339D01*
X109440Y148462D01*
X109590Y148564D01*
X109720Y148640D01*
X109826Y148690D01*
X109903Y148718D01*
X109948Y148728D01*
X110031Y148734D01*
X110079Y148747D01*
X110494D01*
X111449Y149003D01*
X112304Y149497D01*
X113003Y150196D01*
X113497Y151051D01*
X113753Y152006D01*
Y152994D01*
X113497Y153948D01*
X113003Y154804D01*
X112304Y155503D01*
X111449Y155997D01*
X110494Y156253D01*
X110079D01*
X110031Y156266D01*
X109948Y156272D01*
X109903Y156282D01*
X109826Y156310D01*
X109720Y156360D01*
X109590Y156436D01*
X109440Y156537D01*
X109277Y156661D01*
X109170Y156754D01*
X89921Y176003D01*
Y178896D01*
X90000Y179646D01*
X90072Y179965D01*
X90158Y180214D01*
X90241Y180377D01*
X90306Y180460D01*
X90325Y180475D01*
X90396D01*
X91323Y180659D01*
X92109Y181184D01*
X93503Y182579D01*
X108997D01*
X109276Y182299D01*
Y181038D01*
X109269Y180939D01*
X109201Y180427D01*
X109160Y180229D01*
X109112Y180050D01*
X109061Y179901D01*
X109009Y179780D01*
X108938Y179650D01*
X108918Y179589D01*
X108636Y179101D01*
X108353Y178046D01*
Y176954D01*
X108636Y175900D01*
X109182Y174954D01*
X109954Y174182D01*
X110899Y173636D01*
X111954Y173354D01*
X113046D01*
X114101Y173636D01*
X115046Y174182D01*
X115818Y174954D01*
X116364Y175900D01*
X116647Y176954D01*
Y178046D01*
X116364Y179101D01*
X115818Y180046D01*
X115046Y180818D01*
X114698Y181019D01*
X114666Y181052D01*
X114539Y181140D01*
X114467Y181208D01*
X114398Y181295D01*
X114330Y181407D01*
X114265Y181550D01*
X114207Y181725D01*
X114157Y181935D01*
X114120Y182178D01*
X114119Y182191D01*
Y183302D01*
X113935Y184229D01*
X113410Y185014D01*
X111712Y186712D01*
X110927Y187237D01*
X110000Y187421D01*
D02*
G37*
G36*
X215854Y188674D02*
X214146D01*
X212470Y188341D01*
X210891Y187687D01*
X209471Y186738D01*
X208262Y185529D01*
X207313Y184109D01*
X206659Y182530D01*
X206326Y180854D01*
Y179146D01*
X206659Y177470D01*
X207313Y175891D01*
X208262Y174471D01*
X209471Y173263D01*
X210891Y172313D01*
X212470Y171659D01*
X214146Y171326D01*
X215854D01*
X217530Y171659D01*
X219109Y172313D01*
X220529Y173263D01*
X221738Y174471D01*
X222687Y175891D01*
X223341Y177470D01*
X223674Y179146D01*
Y180854D01*
X223341Y182530D01*
X222687Y184109D01*
X221738Y185529D01*
X220529Y186738D01*
X219109Y187687D01*
X217530Y188341D01*
X215854Y188674D01*
D02*
G37*
G36*
X18354D02*
X16646D01*
X14970Y188341D01*
X13391Y187687D01*
X11971Y186738D01*
X10763Y185529D01*
X9813Y184109D01*
X9159Y182530D01*
X8826Y180854D01*
Y179146D01*
X9159Y177470D01*
X9813Y175891D01*
X10763Y174471D01*
X11971Y173263D01*
X13391Y172313D01*
X14970Y171659D01*
X16646Y171326D01*
X18354D01*
X20030Y171659D01*
X21609Y172313D01*
X23029Y173263D01*
X24238Y174471D01*
X25187Y175891D01*
X25841Y177470D01*
X26174Y179146D01*
Y180854D01*
X25841Y182530D01*
X25187Y184109D01*
X24238Y185529D01*
X23029Y186738D01*
X21609Y187687D01*
X20030Y188341D01*
X18354Y188674D01*
D02*
G37*
G36*
X110494Y166253D02*
X109506D01*
X108552Y165997D01*
X107696Y165503D01*
X106997Y164804D01*
X106503Y163949D01*
X106247Y162994D01*
Y162006D01*
X106503Y161051D01*
X106997Y160196D01*
X107696Y159497D01*
X108552Y159003D01*
X109506Y158747D01*
X110494D01*
X111449Y159003D01*
X112304Y159497D01*
X113003Y160196D01*
X113497Y161051D01*
X113753Y162006D01*
Y162994D01*
X113497Y163949D01*
X113003Y164804D01*
X112304Y165503D01*
X111449Y165997D01*
X110494Y166253D01*
D02*
G37*
G36*
X128241Y160958D02*
X121326D01*
Y158408D01*
X121322Y158390D01*
X121326Y158372D01*
Y157287D01*
X121236Y157129D01*
X120995Y156784D01*
X120358Y156030D01*
X111168Y146841D01*
X111152Y146827D01*
X110974Y146693D01*
X110799Y146579D01*
X110630Y146484D01*
X110466Y146408D01*
X110306Y146350D01*
X110149Y146307D01*
X109995Y146279D01*
X109805Y146263D01*
X109771Y146253D01*
X109506D01*
X108552Y145997D01*
X107696Y145503D01*
X106997Y144804D01*
X106503Y143948D01*
X106247Y142994D01*
Y142006D01*
X106503Y141051D01*
X106997Y140196D01*
X107696Y139497D01*
X108552Y139003D01*
X109506Y138747D01*
X109936D01*
X109999Y138732D01*
X110187Y138725D01*
X110337Y138705D01*
X110489Y138670D01*
X110645Y138618D01*
X110805Y138549D01*
X110971Y138460D01*
X111142Y138352D01*
X111318Y138222D01*
X111345Y138199D01*
X118716Y130828D01*
X118807Y130714D01*
X118907Y130572D01*
X118986Y130443D01*
X119045Y130329D01*
X119085Y130231D01*
X119109Y130149D01*
X119121Y130084D01*
X119127Y129981D01*
X119141Y129925D01*
Y129558D01*
X119370Y128703D01*
X119812Y127937D01*
X120438Y127312D01*
X121203Y126870D01*
X122058Y126641D01*
X122942D01*
X123797Y126870D01*
X124563Y127312D01*
X125188Y127937D01*
X125630Y128703D01*
X125859Y129558D01*
Y130442D01*
X125630Y131297D01*
X125188Y132062D01*
X124563Y132688D01*
X123797Y133130D01*
X122942Y133359D01*
X122575D01*
X122520Y133373D01*
X122416Y133379D01*
X122351Y133391D01*
X122269Y133415D01*
X122171Y133455D01*
X122057Y133514D01*
X121927Y133593D01*
X121794Y133687D01*
X121635Y133821D01*
X114300Y141156D01*
X114278Y141182D01*
X114148Y141358D01*
X114040Y141529D01*
X113951Y141695D01*
X113882Y141855D01*
X113830Y142011D01*
X113795Y142163D01*
X113775Y142313D01*
X113768Y142501D01*
X113753Y142564D01*
Y142639D01*
X113763Y142692D01*
X113761Y142878D01*
X113774Y143022D01*
X113802Y143168D01*
X113847Y143318D01*
X113910Y143473D01*
X113992Y143635D01*
X114095Y143802D01*
X114221Y143976D01*
X114250Y144010D01*
X123189Y152950D01*
X123661Y153388D01*
X124058Y153706D01*
X124413Y153952D01*
X124571Y154042D01*
X125655D01*
X125673Y154039D01*
X125692Y154042D01*
X128241D01*
Y160958D01*
D02*
G37*
G36*
X220387Y155465D02*
X217821D01*
Y152900D01*
X220387D01*
Y155465D01*
D02*
G37*
G36*
X217021D02*
X214456D01*
Y152900D01*
X217021D01*
Y155465D01*
D02*
G37*
G36*
X20465Y157965D02*
X14535D01*
Y152035D01*
X20465D01*
Y157965D01*
D02*
G37*
G36*
X220387Y152100D02*
X217821D01*
Y149535D01*
X220387D01*
Y152100D01*
D02*
G37*
G36*
X217021D02*
X214456D01*
Y149535D01*
X217021D01*
Y152100D01*
D02*
G37*
G36*
X80494Y156253D02*
X79506D01*
X78552Y155997D01*
X77696Y155503D01*
X76997Y154804D01*
X76503Y153948D01*
X76247Y152994D01*
Y152006D01*
X76503Y151051D01*
X76997Y150196D01*
X77696Y149497D01*
X78552Y149003D01*
X79506Y148747D01*
X80494D01*
X81449Y149003D01*
X82304Y149497D01*
X83003Y150196D01*
X83497Y151051D01*
X83753Y152006D01*
Y152994D01*
X83497Y153948D01*
X83003Y154804D01*
X82304Y155503D01*
X81449Y155997D01*
X80494Y156253D01*
D02*
G37*
G36*
X106647Y181647D02*
X98353D01*
Y173354D01*
X102401D01*
X102506Y172904D01*
X102665Y172104D01*
X103119Y171426D01*
X106022Y168522D01*
X106022Y168522D01*
X106700Y168069D01*
X107500Y167910D01*
X107500Y167910D01*
X111634D01*
X114301Y165243D01*
X114301Y165243D01*
X114979Y164790D01*
X115779Y164631D01*
X115779Y164631D01*
X150130D01*
X156302Y158458D01*
X156408Y158322D01*
X156510Y158174D01*
X156592Y158036D01*
X156653Y157910D01*
X156696Y157798D01*
X156724Y157699D01*
X156738Y157612D01*
X156745Y157486D01*
X156759Y157428D01*
Y157045D01*
X156995Y156166D01*
X157450Y155377D01*
X158094Y154733D01*
X158882Y154278D01*
X159761Y154042D01*
X160145D01*
X160203Y154028D01*
X160328Y154022D01*
X160415Y154007D01*
X160514Y153980D01*
X160627Y153937D01*
X160752Y153875D01*
X160890Y153794D01*
X161030Y153698D01*
X161218Y153543D01*
X163739Y151022D01*
X163739Y151022D01*
X164417Y150569D01*
X165217Y150410D01*
X165217Y150410D01*
X171142D01*
X174516Y147036D01*
X174516Y147036D01*
X175194Y146583D01*
X175994Y146424D01*
X175994Y146424D01*
X178544D01*
X178944Y146398D01*
Y146208D01*
X179736D01*
X179754Y146204D01*
X179772Y146208D01*
X186056D01*
Y153320D01*
X178944D01*
Y150981D01*
X178942Y150960D01*
X178932Y150934D01*
X178917Y150911D01*
X178871Y150868D01*
X178770Y150807D01*
X178602Y150738D01*
X178363Y150674D01*
X178057Y150624D01*
X177833Y150604D01*
X176860D01*
X173486Y153978D01*
X172808Y154431D01*
X172008Y154590D01*
X172008Y154590D01*
X166082D01*
X164131Y156542D01*
X164025Y156678D01*
X163923Y156826D01*
X163841Y156964D01*
X163780Y157090D01*
X163737Y157202D01*
X163709Y157301D01*
X163695Y157388D01*
X163689Y157514D01*
X163674Y157572D01*
Y157955D01*
X163438Y158835D01*
X162983Y159623D01*
X162339Y160267D01*
X161551Y160722D01*
X160672Y160958D01*
X160288D01*
X160231Y160972D01*
X160105Y160978D01*
X160018Y160993D01*
X159919Y161020D01*
X159806Y161064D01*
X159681Y161125D01*
X159543Y161206D01*
X159404Y161302D01*
X159215Y161457D01*
X152473Y168199D01*
X151795Y168652D01*
X150996Y168811D01*
X150995Y168811D01*
X116645D01*
X113978Y171478D01*
X113300Y171931D01*
X112500Y172090D01*
X112500Y172090D01*
X108366D01*
X106687Y173769D01*
Y175403D01*
X106647Y175605D01*
Y181647D01*
D02*
G37*
G36*
X80494Y146253D02*
X79506D01*
X78552Y145997D01*
X77696Y145503D01*
X76997Y144804D01*
X76503Y143948D01*
X76247Y142994D01*
Y142006D01*
X76503Y141051D01*
X76997Y140196D01*
X77696Y139497D01*
X78552Y139003D01*
X79506Y138747D01*
X80494D01*
X81449Y139003D01*
X82304Y139497D01*
X83003Y140196D01*
X83497Y141051D01*
X83753Y142006D01*
Y142994D01*
X83497Y143948D01*
X83003Y144804D01*
X82304Y145503D01*
X81449Y145997D01*
X80494Y146253D01*
D02*
G37*
G36*
X193172Y183458D02*
X192261D01*
X191382Y183222D01*
X190594Y182767D01*
X189950Y182123D01*
X189495Y181334D01*
X189259Y180455D01*
Y180285D01*
X189251Y180270D01*
X189202Y180195D01*
X189137Y180106D01*
X188868Y179802D01*
X183246Y174180D01*
X183040Y174011D01*
X182915Y173923D01*
X182807Y173856D01*
X182728Y173817D01*
X182690Y173802D01*
X182655Y173801D01*
X182619Y173792D01*
X182032D01*
X181128Y173550D01*
X180317Y173082D01*
X179655Y172420D01*
X179186Y171609D01*
X178944Y170704D01*
Y169768D01*
X179186Y168864D01*
X179655Y168053D01*
X180317Y167391D01*
X181128Y166923D01*
X182032Y166680D01*
X182968D01*
X183872Y166923D01*
X184683Y167391D01*
X185345Y168053D01*
X185814Y168864D01*
X186056Y169768D01*
Y169969D01*
X186058Y169976D01*
X186063Y170004D01*
X186085Y170051D01*
X186136Y170136D01*
X186200Y170229D01*
X186549Y170635D01*
X189833Y173919D01*
X190295Y173728D01*
Y158997D01*
X190480Y158070D01*
X191004Y157284D01*
X199624Y148665D01*
X199906Y148312D01*
X200204Y147874D01*
X200461Y147422D01*
X200677Y146955D01*
X200854Y146471D01*
X200993Y145970D01*
X201092Y145450D01*
X201142Y145001D01*
Y136918D01*
X201069Y136508D01*
X200953Y136159D01*
X200803Y135881D01*
X200621Y135658D01*
X200398Y135476D01*
X200120Y135326D01*
X199771Y135210D01*
X199362Y135138D01*
X180413D01*
X180115Y135170D01*
X180001Y135191D01*
X179919Y135212D01*
X179898Y135220D01*
X179874Y135232D01*
X179623Y135483D01*
X178834Y135938D01*
X177955Y136174D01*
X177600D01*
X177575Y136182D01*
X177554Y136192D01*
X177482Y136235D01*
X177398Y136293D01*
X177033Y136608D01*
X171488Y142153D01*
X171301Y142386D01*
X171235Y142482D01*
X171192Y142554D01*
X171182Y142575D01*
X171174Y142599D01*
Y142955D01*
X170938Y143834D01*
X170483Y144623D01*
X169840Y145267D01*
X169051Y145722D01*
X168172Y145958D01*
X167261D01*
X166382Y145722D01*
X165594Y145267D01*
X164950Y144623D01*
X164495Y143834D01*
X164259Y142955D01*
Y142045D01*
X164495Y141165D01*
X164950Y140377D01*
X165594Y139733D01*
X166382Y139278D01*
X167261Y139042D01*
X167617D01*
X167642Y139034D01*
X167663Y139025D01*
X167735Y138982D01*
X167819Y138924D01*
X168184Y138609D01*
X173728Y133064D01*
X173916Y132831D01*
X173982Y132735D01*
X174025Y132662D01*
X174034Y132642D01*
X174042Y132617D01*
Y132261D01*
X174278Y131382D01*
X174733Y130594D01*
X175377Y129950D01*
X176165Y129495D01*
X177045Y129259D01*
X177955D01*
X178834Y129495D01*
X179623Y129950D01*
X179874Y130201D01*
X179898Y130213D01*
X179919Y130221D01*
X180001Y130242D01*
X180101Y130260D01*
X180582Y130295D01*
X200414D01*
X200862Y130245D01*
X201383Y130146D01*
X201884Y130008D01*
X202368Y129831D01*
X202835Y129614D01*
X203287Y129357D01*
X203725Y129060D01*
X204077Y128778D01*
X207473Y125382D01*
X207481Y125372D01*
X207650Y125150D01*
X207790Y124936D01*
X207905Y124730D01*
X207995Y124533D01*
X208062Y124345D01*
X208107Y124165D01*
X208133Y123992D01*
X208142Y123780D01*
X208157Y123720D01*
Y123208D01*
X208453Y122103D01*
X209025Y121113D01*
X209833Y120304D01*
X210823Y119732D01*
X211928Y119436D01*
X213072D01*
X214177Y119732D01*
X215167Y120304D01*
X215975Y121113D01*
X216547Y122103D01*
X216843Y123208D01*
Y124351D01*
X216547Y125456D01*
X215975Y126446D01*
X215167Y127255D01*
X214177Y127827D01*
X213072Y128123D01*
X212560D01*
X212499Y128138D01*
X212288Y128147D01*
X212115Y128172D01*
X211935Y128218D01*
X211747Y128284D01*
X211550Y128374D01*
X211344Y128489D01*
X211129Y128630D01*
X210907Y128798D01*
X210898Y128806D01*
X207502Y132202D01*
X207220Y132554D01*
X206922Y132992D01*
X206665Y133444D01*
X206449Y133912D01*
X206272Y134396D01*
X206133Y134897D01*
X206034Y135417D01*
X205984Y135866D01*
Y145001D01*
X206034Y145450D01*
X206133Y145970D01*
X206272Y146471D01*
X206449Y146955D01*
X206665Y147422D01*
X206922Y147874D01*
X207220Y148312D01*
X207502Y148665D01*
X208519Y149682D01*
X208723Y149737D01*
X209400Y150127D01*
X209952Y150679D01*
X210342Y151355D01*
X210544Y152110D01*
Y152890D01*
X210342Y153645D01*
X209952Y154321D01*
X209400Y154873D01*
X208723Y155263D01*
X207969Y155465D01*
X207188D01*
X206434Y155263D01*
X205758Y154873D01*
X205206Y154321D01*
X204816Y153645D01*
X204613Y152890D01*
Y152687D01*
X204481Y152594D01*
X204152Y152430D01*
X203849Y152339D01*
X203563Y152311D01*
X203277Y152339D01*
X202974Y152430D01*
X202645Y152594D01*
X202305Y152833D01*
X195138Y160000D01*
Y177087D01*
X195170Y177385D01*
X195191Y177499D01*
X195212Y177581D01*
X195220Y177602D01*
X195232Y177626D01*
X195483Y177877D01*
X195938Y178665D01*
X196174Y179545D01*
Y180455D01*
X195938Y181334D01*
X195483Y182123D01*
X194840Y182767D01*
X194051Y183222D01*
X193172Y183458D01*
D02*
G37*
G36*
X110494Y136253D02*
X109506D01*
X108552Y135997D01*
X107696Y135503D01*
X106997Y134804D01*
X106503Y133949D01*
X106247Y132994D01*
Y132006D01*
X106503Y131052D01*
X106997Y130196D01*
X107696Y129497D01*
X108552Y129003D01*
X109506Y128747D01*
X110494D01*
X111449Y129003D01*
X112304Y129497D01*
X113003Y130196D01*
X113497Y131052D01*
X113753Y132006D01*
Y132994D01*
X113497Y133949D01*
X113003Y134804D01*
X112304Y135503D01*
X111449Y135997D01*
X110494Y136253D01*
D02*
G37*
G36*
X20572Y119343D02*
X20400D01*
Y115400D01*
X24343D01*
Y115572D01*
X24047Y116676D01*
X23475Y117667D01*
X22667Y118475D01*
X21676Y119047D01*
X20572Y119343D01*
D02*
G37*
G36*
X19600D02*
X19428D01*
X18324Y119047D01*
X17333Y118475D01*
X16524Y117667D01*
X15953Y116676D01*
X15657Y115572D01*
Y115400D01*
X19600D01*
Y119343D01*
D02*
G37*
G36*
X24343Y114600D02*
X20400D01*
Y110657D01*
X20572D01*
X21676Y110953D01*
X22667Y111524D01*
X23475Y112333D01*
X24047Y113324D01*
X24343Y114428D01*
Y114600D01*
D02*
G37*
G36*
X19600D02*
X15657D01*
Y114428D01*
X15953Y113324D01*
X16524Y112333D01*
X17333Y111524D01*
X18324Y110953D01*
X19428Y110657D01*
X19600D01*
Y114600D01*
D02*
G37*
G36*
X213072Y114343D02*
X212900D01*
Y110400D01*
X216843D01*
Y110572D01*
X216547Y111676D01*
X215975Y112667D01*
X215167Y113476D01*
X214177Y114047D01*
X213072Y114343D01*
D02*
G37*
G36*
X212100D02*
X211928D01*
X210823Y114047D01*
X209833Y113476D01*
X209025Y112667D01*
X208453Y111676D01*
X208157Y110572D01*
Y110400D01*
X212100D01*
Y114343D01*
D02*
G37*
G36*
X216843Y109600D02*
X212900D01*
Y105657D01*
X213072D01*
X214177Y105953D01*
X215167Y106525D01*
X215975Y107333D01*
X216547Y108324D01*
X216843Y109428D01*
Y109600D01*
D02*
G37*
G36*
X212100D02*
X208157D01*
Y109428D01*
X208453Y108324D01*
X209025Y107333D01*
X209833Y106525D01*
X210823Y105953D01*
X211928Y105657D01*
X212100D01*
Y109600D01*
D02*
G37*
G36*
X135741Y145958D02*
X128826D01*
Y139042D01*
X129706D01*
X129840Y139028D01*
X129866Y139019D01*
X129889Y139004D01*
X129930Y138959D01*
X129991Y138860D01*
X130059Y138693D01*
X130123Y138456D01*
X130174Y138151D01*
X130193Y137929D01*
Y130649D01*
X123992Y124448D01*
X123522Y124011D01*
X123124Y123692D01*
X122768Y123444D01*
X122621Y123359D01*
X119141D01*
Y118893D01*
X119101Y118691D01*
X119101Y118691D01*
Y116840D01*
X113675Y111414D01*
X113539Y111308D01*
X113390Y111206D01*
X113252Y111125D01*
X113127Y111064D01*
X113014Y111020D01*
X112915Y110993D01*
X112828Y110978D01*
X112703Y110972D01*
X112645Y110958D01*
X112261D01*
X111382Y110722D01*
X110594Y110267D01*
X109950Y109623D01*
X109495Y108835D01*
X109259Y107955D01*
Y107045D01*
X109495Y106166D01*
X109950Y105377D01*
X110594Y104733D01*
X111382Y104278D01*
X112261Y104042D01*
X113172D01*
X114051Y104278D01*
X114839Y104733D01*
X115483Y105377D01*
X115938Y106166D01*
X116174Y107045D01*
Y107428D01*
X116189Y107486D01*
X116195Y107612D01*
X116209Y107699D01*
X116237Y107798D01*
X116280Y107910D01*
X116341Y108036D01*
X116423Y108174D01*
X116518Y108313D01*
X116674Y108501D01*
X122669Y114496D01*
X123122Y115174D01*
X123281Y115974D01*
Y116641D01*
X125859D01*
Y120121D01*
X125944Y120268D01*
X126185Y120615D01*
X126824Y121368D01*
X133761Y128305D01*
X134214Y128984D01*
X134374Y129783D01*
Y137929D01*
X134393Y138152D01*
X134444Y138456D01*
X134508Y138693D01*
X134576Y138860D01*
X134637Y138959D01*
X134678Y139004D01*
X134701Y139019D01*
X134727Y139028D01*
X134861Y139042D01*
X135741D01*
Y145958D01*
D02*
G37*
G36*
X110494Y91253D02*
X109506D01*
X108552Y90997D01*
X107696Y90503D01*
X106997Y89804D01*
X106503Y88949D01*
X106247Y87994D01*
Y87006D01*
X106503Y86051D01*
X106997Y85196D01*
X107696Y84497D01*
X108552Y84003D01*
X109506Y83747D01*
X110494D01*
X111449Y84003D01*
X112304Y84497D01*
X113003Y85196D01*
X113497Y86051D01*
X113753Y87006D01*
Y87994D01*
X113497Y88949D01*
X113003Y89804D01*
X112304Y90503D01*
X111449Y90997D01*
X110494Y91253D01*
D02*
G37*
G36*
X17979Y72963D02*
Y70400D01*
X20541D01*
X20342Y71145D01*
X19952Y71821D01*
X19399Y72373D01*
X18723Y72763D01*
X17979Y72963D01*
D02*
G37*
G36*
X17179D02*
X16434Y72763D01*
X15758Y72373D01*
X15206Y71821D01*
X14816Y71145D01*
X14616Y70400D01*
X17179D01*
Y72963D01*
D02*
G37*
G36*
X80494Y71253D02*
X80400D01*
Y67900D01*
X83753D01*
Y67994D01*
X83497Y68949D01*
X83003Y69804D01*
X82304Y70503D01*
X81449Y70997D01*
X80494Y71253D01*
D02*
G37*
G36*
X79600D02*
X79506D01*
X78552Y70997D01*
X77696Y70503D01*
X76997Y69804D01*
X76503Y68949D01*
X76247Y67994D01*
Y67900D01*
X79600D01*
Y71253D01*
D02*
G37*
G36*
X20541Y69600D02*
X17979D01*
Y67037D01*
X18723Y67237D01*
X19399Y67627D01*
X19952Y68179D01*
X20342Y68855D01*
X20541Y69600D01*
D02*
G37*
G36*
X17179D02*
X14616D01*
X14816Y68855D01*
X15206Y68179D01*
X15758Y67627D01*
X16434Y67237D01*
X17179Y67037D01*
Y69600D01*
D02*
G37*
G36*
X83753Y67100D02*
X80400D01*
Y63747D01*
X80494D01*
X81449Y64003D01*
X82304Y64497D01*
X83003Y65196D01*
X83497Y66052D01*
X83753Y67006D01*
Y67100D01*
D02*
G37*
G36*
X79600D02*
X76247D01*
Y67006D01*
X76503Y66052D01*
X76997Y65196D01*
X77696Y64497D01*
X78552Y64003D01*
X79506Y63747D01*
X79600D01*
Y67100D01*
D02*
G37*
G36*
X55520Y67206D02*
X55400D01*
Y63656D01*
X58950D01*
Y63776D01*
X58680Y64780D01*
X58161Y65681D01*
X57425Y66416D01*
X56524Y66936D01*
X55520Y67206D01*
D02*
G37*
G36*
X54600D02*
X54480D01*
X53475Y66936D01*
X52575Y66416D01*
X51840Y65681D01*
X51320Y64780D01*
X51050Y63776D01*
Y63656D01*
X54600D01*
Y67206D01*
D02*
G37*
G36*
X217821Y62963D02*
Y60400D01*
X220384D01*
X220184Y61145D01*
X219794Y61821D01*
X219242Y62373D01*
X218566Y62763D01*
X217821Y62963D01*
D02*
G37*
G36*
X217021D02*
X216277Y62763D01*
X215600Y62373D01*
X215048Y61821D01*
X214658Y61145D01*
X214458Y60400D01*
X217021D01*
Y62963D01*
D02*
G37*
G36*
X220384Y59600D02*
X217821D01*
Y57037D01*
X218566Y57237D01*
X219242Y57627D01*
X219794Y58179D01*
X220184Y58855D01*
X220384Y59600D01*
D02*
G37*
G36*
X217021D02*
X214458D01*
X214658Y58855D01*
X215048Y58179D01*
X215600Y57627D01*
X216277Y57237D01*
X217021Y57037D01*
Y59600D01*
D02*
G37*
G36*
X43901Y44166D02*
X43884D01*
Y41404D01*
X46646D01*
Y41420D01*
X46431Y42224D01*
X46015Y42946D01*
X45426Y43534D01*
X44705Y43951D01*
X43901Y44166D01*
D02*
G37*
G36*
X43084D02*
X43068D01*
X42264Y43951D01*
X41543Y43534D01*
X40954Y42946D01*
X40538Y42224D01*
X40322Y41420D01*
Y41404D01*
X43084D01*
Y44166D01*
D02*
G37*
G36*
X46646Y40604D02*
X43884D01*
Y37842D01*
X43901D01*
X44705Y38057D01*
X45426Y38474D01*
X46015Y39062D01*
X46431Y39783D01*
X46646Y40588D01*
Y40604D01*
D02*
G37*
G36*
X43084D02*
X40322D01*
Y40588D01*
X40538Y39783D01*
X40954Y39062D01*
X41543Y38474D01*
X42264Y38057D01*
X43068Y37842D01*
X43084D01*
Y40604D01*
D02*
G37*
G36*
X76647Y34166D02*
X70322D01*
Y27842D01*
X76647D01*
Y34166D01*
D02*
G37*
G36*
X215854Y23674D02*
X214146D01*
X212470Y23341D01*
X210891Y22687D01*
X209471Y21737D01*
X208262Y20529D01*
X207313Y19109D01*
X206659Y17530D01*
X206326Y15854D01*
Y14146D01*
X206659Y12470D01*
X207313Y10891D01*
X208262Y9471D01*
X209471Y8263D01*
X210891Y7313D01*
X212470Y6659D01*
X214146Y6326D01*
X215854D01*
X217530Y6659D01*
X219109Y7313D01*
X220529Y8263D01*
X221738Y9471D01*
X222687Y10891D01*
X223341Y12470D01*
X223674Y14146D01*
Y15854D01*
X223341Y17530D01*
X222687Y19109D01*
X221738Y20529D01*
X220529Y21737D01*
X219109Y22687D01*
X217530Y23341D01*
X215854Y23674D01*
D02*
G37*
G36*
X15854D02*
X14146D01*
X12470Y23341D01*
X10891Y22687D01*
X9471Y21737D01*
X8263Y20529D01*
X7313Y19109D01*
X6659Y17530D01*
X6326Y15854D01*
Y14146D01*
X6659Y12470D01*
X7313Y10891D01*
X8263Y9471D01*
X9471Y8263D01*
X10891Y7313D01*
X12470Y6659D01*
X14146Y6326D01*
X15854D01*
X17530Y6659D01*
X19109Y7313D01*
X20529Y8263D01*
X21737Y9471D01*
X22687Y10891D01*
X23341Y12470D01*
X23674Y14146D01*
Y15854D01*
X23341Y17530D01*
X22687Y19109D01*
X21737Y20529D01*
X20529Y21737D01*
X19109Y22687D01*
X17530Y23341D01*
X15854Y23674D01*
D02*
G37*
%LPD*%
G36*
X154638Y177355D02*
X151488Y175925D01*
Y179075D01*
X152088Y179091D01*
X152625Y179138D01*
X153098Y179217D01*
X153509Y179327D01*
X153857Y179469D01*
X154141Y179642D01*
X154363Y179847D01*
X154522Y180083D01*
X154617Y180350D01*
X154650Y180650D01*
X154638Y177355D01*
D02*
G37*
G36*
X125051Y179697D02*
X125233Y179566D01*
X125437Y179451D01*
X125662Y179351D01*
X125909Y179267D01*
X126177Y179198D01*
X126466Y179144D01*
X126776Y179105D01*
X127108Y179083D01*
X127461Y179075D01*
Y175925D01*
X127108Y175917D01*
X126466Y175856D01*
X126177Y175802D01*
X125909Y175733D01*
X125662Y175649D01*
X125437Y175549D01*
X125233Y175434D01*
X125051Y175303D01*
X124890Y175157D01*
Y179842D01*
X125051Y179697D01*
D02*
G37*
G36*
X159751Y181564D02*
X159662Y181274D01*
Y180940D01*
X159751Y180562D01*
X159929Y180138D01*
X160196Y179671D01*
X160553Y179158D01*
X160998Y178602D01*
X162156Y177355D01*
X159929Y175127D01*
X159283Y175751D01*
X158125Y176731D01*
X157613Y177087D01*
X157145Y177355D01*
X156722Y177533D01*
X156343Y177622D01*
X156009D01*
X155720Y177533D01*
X155475Y177355D01*
X159929Y181809D01*
X159751Y181564D01*
D02*
G37*
G36*
X181065Y163667D02*
X181649Y163159D01*
X181817Y163035D01*
X181974Y162934D01*
X182118Y162855D01*
X182249Y162799D01*
X182367Y162766D01*
X182472Y162756D01*
X179744Y160028D01*
X179734Y160133D01*
X179701Y160251D01*
X179645Y160382D01*
X179566Y160526D01*
X179465Y160682D01*
X179341Y160852D01*
X179025Y161228D01*
X178618Y161655D01*
X180845Y163882D01*
X181065Y163667D01*
D02*
G37*
G36*
X113282Y182410D02*
X113310Y182082D01*
X113356Y181779D01*
X113421Y181502D01*
X113505Y181251D01*
X113607Y181026D01*
X113728Y180826D01*
X113867Y180652D01*
X114025Y180504D01*
X114201Y180382D01*
X109653Y179259D01*
X109742Y179422D01*
X109822Y179606D01*
X109893Y179813D01*
X109954Y180041D01*
X110005Y180290D01*
X110081Y180854D01*
X110104Y181169D01*
X110123Y181863D01*
X113273Y182764D01*
X113282Y182410D01*
D02*
G37*
G36*
X90396Y181322D02*
X90145Y181290D01*
X89921Y181196D01*
X89722Y181038D01*
X89551Y180818D01*
X89405Y180534D01*
X89286Y180188D01*
X89194Y179778D01*
X89088Y178770D01*
X89075Y178172D01*
X85925D01*
X85894Y178770D01*
X85799Y179306D01*
X85642Y179778D01*
X85421Y180188D01*
X85138Y180534D01*
X84791Y180818D01*
X84382Y181038D01*
X83909Y181196D01*
X83374Y181290D01*
X82776Y181322D01*
X87500Y184471D01*
X90396Y181322D01*
D02*
G37*
G36*
X108327Y156407D02*
X108762Y156028D01*
X108964Y155874D01*
X109157Y155744D01*
X109340Y155638D01*
X109512Y155556D01*
X109675Y155498D01*
X109828Y155463D01*
X109970Y155453D01*
X107047Y152530D01*
X107037Y152672D01*
X107002Y152825D01*
X106944Y152988D01*
X106862Y153160D01*
X106756Y153343D01*
X106626Y153536D01*
X106472Y153738D01*
X106093Y154173D01*
X105868Y154405D01*
X108095Y156632D01*
X108327Y156407D01*
D02*
G37*
G36*
X109970Y149547D02*
X109828Y149537D01*
X109675Y149502D01*
X109512Y149444D01*
X109340Y149362D01*
X109157Y149256D01*
X108964Y149126D01*
X108762Y148972D01*
X108327Y148593D01*
X108095Y148368D01*
X105868Y150595D01*
X106093Y150827D01*
X106472Y151262D01*
X106626Y151464D01*
X106756Y151657D01*
X106862Y151840D01*
X106944Y152012D01*
X107002Y152175D01*
X107037Y152328D01*
X107047Y152471D01*
X109970Y149547D01*
D02*
G37*
G36*
X58755Y149244D02*
X58546Y149031D01*
X57930Y148318D01*
X57831Y148175D01*
X57754Y148046D01*
X57700Y147931D01*
X57668Y147830D01*
X57657Y147743D01*
X55027Y150374D01*
X55114Y150384D01*
X55215Y150417D01*
X55330Y150471D01*
X55459Y150548D01*
X55602Y150646D01*
X55930Y150910D01*
X56314Y151262D01*
X56528Y151471D01*
X58755Y149244D01*
D02*
G37*
G36*
X53102Y146930D02*
X54973Y145059D01*
X54887Y145049D01*
X54786Y145017D01*
X54671Y144962D01*
X54541Y144886D01*
X54398Y144787D01*
X54070Y144523D01*
X53686Y144171D01*
X53473Y143962D01*
X51293Y146142D01*
X51265Y146142D01*
Y146169D01*
X51245Y146189D01*
X51265Y146209D01*
Y149291D01*
X51564Y149294D01*
X52503Y149363D01*
X52674Y149394D01*
X52819Y149431D01*
X52939Y149474D01*
X53034Y149522D01*
X53102Y149577D01*
Y146930D01*
D02*
G37*
G36*
X82963Y132328D02*
X82998Y132175D01*
X83056Y132012D01*
X83138Y131840D01*
X83244Y131657D01*
X83374Y131464D01*
X83528Y131262D01*
X83907Y130827D01*
X84132Y130595D01*
X81905Y128367D01*
X81673Y128593D01*
X81238Y128972D01*
X81036Y129126D01*
X80843Y129256D01*
X80660Y129362D01*
X80488Y129444D01*
X80325Y129502D01*
X80172Y129537D01*
X80029Y129547D01*
X82953Y132471D01*
X82963Y132328D01*
D02*
G37*
G36*
X23551Y131630D02*
X23646Y131362D01*
X23804Y131126D01*
X24025Y130921D01*
X24310Y130748D01*
X24657Y130606D01*
X25069Y130496D01*
X25543Y130417D01*
X26080Y130370D01*
X26681Y130354D01*
Y127205D01*
X26080Y127189D01*
X25543Y127142D01*
X25069Y127063D01*
X24657Y126953D01*
X24310Y126811D01*
X24025Y126638D01*
X23804Y126433D01*
X23646Y126197D01*
X23551Y125929D01*
X23519Y125630D01*
Y131929D01*
X23551Y131630D01*
D02*
G37*
G36*
X162127Y118602D02*
X162056Y118453D01*
X161993Y118287D01*
X161939Y118104D01*
X161893Y117904D01*
X161855Y117688D01*
X161805Y117206D01*
X161793Y116939D01*
X161789Y116657D01*
X159289Y116062D01*
X159281Y116342D01*
X159260Y116603D01*
X159223Y116845D01*
X159172Y117066D01*
X159107Y117268D01*
X159027Y117450D01*
X158933Y117612D01*
X158824Y117755D01*
X158701Y117878D01*
X158563Y117981D01*
X162206Y118735D01*
X162127Y118602D01*
D02*
G37*
G36*
X57262Y109613D02*
X57050Y109538D01*
X56862Y109413D01*
X56700Y109238D01*
X56563Y109013D01*
X56450Y108738D01*
X56362Y108413D01*
X56300Y108038D01*
X56262Y107613D01*
X56253Y107260D01*
X56262Y106904D01*
X56300Y106477D01*
X56362Y106101D01*
X56450Y105774D01*
X56563Y105498D01*
X56700Y105272D01*
X56862Y105096D01*
X57050Y104970D01*
X57262Y104895D01*
X57500Y104870D01*
X52500D01*
X52737Y104895D01*
X52950Y104970D01*
X53137Y105096D01*
X53300Y105272D01*
X53438Y105498D01*
X53550Y105774D01*
X53637Y106101D01*
X53700Y106477D01*
X53737Y106904D01*
X53747Y107260D01*
X53737Y107613D01*
X53700Y108038D01*
X53637Y108413D01*
X53550Y108738D01*
X53438Y109013D01*
X53300Y109238D01*
X53137Y109413D01*
X52950Y109538D01*
X52737Y109613D01*
X52500Y109638D01*
X57500D01*
X57262Y109613D01*
D02*
G37*
G36*
X78174Y104855D02*
X77979Y104996D01*
X77749Y105067D01*
X77484D01*
X77184Y104996D01*
X76848Y104855D01*
X76477Y104642D01*
X76070Y104359D01*
X75628Y104006D01*
X74638Y103087D01*
X72870Y104855D01*
X73365Y105367D01*
X74143Y106286D01*
X74426Y106693D01*
X74638Y107064D01*
X74779Y107400D01*
X74850Y107701D01*
Y107966D01*
X74779Y108196D01*
X74638Y108390D01*
X78174Y104855D01*
D02*
G37*
G36*
X175368Y101200D02*
X176289Y100420D01*
X176696Y100136D01*
X177067Y99923D01*
X177403Y99780D01*
X177703Y99708D01*
X177968Y99707D01*
X178197Y99777D01*
X178390Y99917D01*
X174866Y96393D01*
X175007Y96587D01*
X175076Y96816D01*
X175075Y97080D01*
X175003Y97381D01*
X174866Y97702D01*
Y94784D01*
X174841Y95021D01*
X174766Y95234D01*
X174640Y95421D01*
X174465Y95583D01*
X174239Y95721D01*
X173962Y95833D01*
X173636Y95921D01*
X173259Y95983D01*
X172832Y96021D01*
X172354Y96034D01*
Y98533D01*
X172832Y98546D01*
X173259Y98584D01*
X173636Y98646D01*
X173962Y98734D01*
X174120Y98798D01*
X174008Y98937D01*
X173087Y99929D01*
X174855Y101697D01*
X175368Y101200D01*
D02*
G37*
G36*
X22308Y98503D02*
X22154Y98295D01*
X22018Y98068D01*
X21901Y97821D01*
X21801Y97554D01*
X21720Y97267D01*
X21656Y96960D01*
X21611Y96633D01*
X21584Y96287D01*
X21575Y95920D01*
X18425D01*
X18416Y96287D01*
X18389Y96633D01*
X18344Y96960D01*
X18280Y97267D01*
X18199Y97554D01*
X18099Y97821D01*
X17981Y98068D01*
X17846Y98295D01*
X17692Y98503D01*
X17520Y98690D01*
X22480D01*
X22308Y98503D01*
D02*
G37*
G36*
X208981Y93071D02*
X208949Y93370D01*
X208854Y93638D01*
X208696Y93874D01*
X208475Y94079D01*
X208190Y94252D01*
X207842Y94394D01*
X207432Y94504D01*
X206957Y94583D01*
X206420Y94630D01*
X205819Y94646D01*
Y97795D01*
X206420Y97811D01*
X206957Y97858D01*
X207432Y97937D01*
X207842Y98047D01*
X208190Y98189D01*
X208475Y98362D01*
X208696Y98567D01*
X208854Y98803D01*
X208949Y99071D01*
X208981Y99370D01*
Y93071D01*
D02*
G37*
G36*
X183784Y79001D02*
X183572Y78787D01*
X182852Y77964D01*
X183060Y77718D01*
X183780Y76966D01*
X181997Y74295D01*
X181785Y74502D01*
X181222Y74983D01*
X181061Y75097D01*
X180911Y75187D01*
X180774Y75253D01*
X180650Y75296D01*
X180539Y75316D01*
X180441Y75312D01*
X182369Y77964D01*
X180372Y80564D01*
X180470Y80563D01*
X180581Y80585D01*
X180704Y80630D01*
X180840Y80698D01*
X180989Y80790D01*
X181150Y80905D01*
X181512Y81204D01*
X181712Y81388D01*
X181925Y81596D01*
X183784Y79001D01*
D02*
G37*
G36*
X162677Y87226D02*
X162771Y87043D01*
X162929Y86883D01*
X163149Y86744D01*
X163433Y86626D01*
X163779Y86530D01*
X164189Y86455D01*
X164661Y86401D01*
X165197Y86369D01*
X165795Y86358D01*
Y83209D01*
X165197Y83198D01*
X164189Y83112D01*
X163779Y83037D01*
X163433Y82941D01*
X163149Y82823D01*
X162929Y82684D01*
X162771Y82523D01*
X162677Y82341D01*
X162645Y82138D01*
X162442Y82107D01*
X162260Y82012D01*
X162099Y81854D01*
X161960Y81634D01*
X161843Y81351D01*
X161746Y81004D01*
X161671Y80595D01*
X161618Y80122D01*
X161585Y79587D01*
X161575Y78988D01*
X158425D01*
X158414Y79587D01*
X158329Y80595D01*
X158254Y81004D01*
X158158Y81351D01*
X158040Y81634D01*
X157901Y81854D01*
X157740Y82012D01*
X157558Y82107D01*
X157354Y82138D01*
X162645D01*
Y87429D01*
X162677Y87226D01*
D02*
G37*
G36*
X178288Y81388D02*
X178850Y80905D01*
X179011Y80790D01*
X179160Y80698D01*
X179296Y80630D01*
X179419Y80585D01*
X179530Y80563D01*
X179628Y80564D01*
X177362Y77613D01*
X177344Y77677D01*
X177305Y77757D01*
X177245Y77854D01*
X177163Y77967D01*
X176933Y78245D01*
X176427Y78787D01*
X176216Y79001D01*
X178075Y81596D01*
X178288Y81388D01*
D02*
G37*
G36*
X108327Y81407D02*
X108762Y81028D01*
X108964Y80874D01*
X109157Y80744D01*
X109340Y80638D01*
X109512Y80556D01*
X109675Y80498D01*
X109828Y80463D01*
X109970Y80453D01*
X107047Y77530D01*
X107037Y77672D01*
X107002Y77825D01*
X106944Y77988D01*
X106862Y78160D01*
X106756Y78343D01*
X106626Y78536D01*
X106472Y78738D01*
X106093Y79173D01*
X105868Y79405D01*
X108095Y81633D01*
X108327Y81407D01*
D02*
G37*
G36*
X77957Y81322D02*
X78177Y81137D01*
X78397Y80975D01*
X78618Y80834D01*
X78841Y80716D01*
X79065Y80619D01*
X79289Y80545D01*
X79515Y80492D01*
X79742Y80461D01*
X79971Y80453D01*
X77047Y77530D01*
X77039Y77758D01*
X77008Y77985D01*
X76955Y78211D01*
X76881Y78435D01*
X76784Y78659D01*
X76666Y78882D01*
X76525Y79103D01*
X76363Y79323D01*
X76178Y79542D01*
X75972Y79760D01*
X77740Y81528D01*
X77957Y81322D01*
D02*
G37*
G36*
X29002Y74704D02*
X29141Y72941D01*
X29204Y72657D01*
X29280Y72437D01*
X29366Y72279D01*
X29465Y72185D01*
X29575Y72153D01*
X25268D01*
X25378Y72185D01*
X25476Y72279D01*
X25563Y72437D01*
X25638Y72657D01*
X25702Y72941D01*
X25754Y73287D01*
X25823Y74169D01*
X25846Y75303D01*
X28996D01*
X29002Y74704D01*
D02*
G37*
G36*
X130237Y66590D02*
X130674Y66120D01*
X130993Y65722D01*
X131241Y65367D01*
X131326Y65219D01*
Y61542D01*
X137880D01*
X138087Y61042D01*
X135131Y58087D01*
X128497D01*
X127697Y57928D01*
X127019Y57475D01*
X127019Y57475D01*
X126359Y56815D01*
X125859Y57022D01*
Y63359D01*
X119141D01*
Y62420D01*
X119140Y62410D01*
X119134Y62394D01*
X119124Y62379D01*
X119083Y62342D01*
X118986Y62284D01*
X118822Y62219D01*
X118588Y62157D01*
X118339Y62117D01*
X115508Y64948D01*
X115699Y65410D01*
X120899D01*
X120899Y65410D01*
X121699Y65569D01*
X122377Y66022D01*
X124265Y67910D01*
X128918D01*
X130237Y66590D01*
D02*
G37*
G36*
X132652Y68917D02*
X133572Y68137D01*
X133979Y67853D01*
X134351Y67639D01*
X134686Y67497D01*
X134987Y67425D01*
X135251Y67424D01*
X135480Y67493D01*
X135673Y67633D01*
X132150Y64110D01*
X132290Y64303D01*
X132360Y64532D01*
X132359Y64797D01*
X132287Y65097D01*
X132144Y65433D01*
X131931Y65804D01*
X131647Y66211D01*
X131292Y66654D01*
X130370Y67646D01*
X132138Y69413D01*
X132652Y68917D01*
D02*
G37*
G36*
X112276Y69412D02*
X112458Y69273D01*
X112655Y69150D01*
X112867Y69044D01*
X113094Y68954D01*
X113335Y68881D01*
X113591Y68823D01*
X113861Y68783D01*
X114147Y68758D01*
X114447Y68750D01*
Y66250D01*
X114147Y66242D01*
X113861Y66217D01*
X113591Y66176D01*
X113335Y66119D01*
X113334Y66119D01*
X113334Y66118D01*
X113475Y65897D01*
X113637Y65677D01*
X113822Y65457D01*
X114028Y65240D01*
X112260Y63472D01*
X112042Y63678D01*
X111823Y63863D01*
X111603Y64025D01*
X111382Y64166D01*
X111159Y64284D01*
X110935Y64381D01*
X110711Y64455D01*
X110485Y64508D01*
X110258Y64539D01*
X110029Y64547D01*
X112109Y66627D01*
Y69567D01*
X112276Y69412D01*
D02*
G37*
G36*
X172882Y64801D02*
X172912Y64625D01*
X172961Y64446D01*
X173032Y64263D01*
X173123Y64077D01*
X173234Y63888D01*
X173366Y63696D01*
X173519Y63500D01*
X173692Y63301D01*
X173886Y63098D01*
X172118Y61330D01*
X171916Y61524D01*
X171521Y61850D01*
X171328Y61982D01*
X171139Y62094D01*
X170953Y62185D01*
X170771Y62255D01*
X170592Y62305D01*
X170416Y62334D01*
X170395Y62335D01*
X170294Y62297D01*
X170174Y62235D01*
X170040Y62153D01*
X169893Y62049D01*
X169561Y61779D01*
X169176Y61426D01*
X168964Y61218D01*
X166852Y62642D01*
X167041Y62838D01*
X167348Y63204D01*
X167466Y63374D01*
X167561Y63535D01*
X167632Y63687D01*
X167679Y63830D01*
X167703Y63965D01*
X167703Y64091D01*
X167680Y64207D01*
X170352Y62452D01*
X172874Y64973D01*
X172882Y64801D01*
D02*
G37*
G36*
X205869Y63957D02*
X206748Y63245D01*
X207184Y62955D01*
X207616Y62710D01*
X208045Y62510D01*
X208471Y62354D01*
X208894Y62242D01*
X209315Y62176D01*
X209732Y62153D01*
X205425Y57847D01*
X205403Y58264D01*
X205336Y58684D01*
X205225Y59108D01*
X205069Y59534D01*
X204869Y59963D01*
X204624Y60395D01*
X204334Y60830D01*
X204000Y61268D01*
X203621Y61709D01*
X203198Y62153D01*
X205425Y64381D01*
X205869Y63957D01*
D02*
G37*
G36*
X119965Y57547D02*
X119940Y57776D01*
X119866Y57980D01*
X119743Y58161D01*
X119571Y58317D01*
X119349Y58449D01*
X119078Y58557D01*
X118757Y58642D01*
X118387Y58702D01*
X117968Y58738D01*
X117500Y58750D01*
Y61250D01*
X117968Y61262D01*
X118387Y61298D01*
X118757Y61358D01*
X119078Y61443D01*
X119349Y61551D01*
X119571Y61683D01*
X119743Y61839D01*
X119866Y62020D01*
X119940Y62224D01*
X119965Y62453D01*
Y57547D01*
D02*
G37*
G36*
X84132Y59405D02*
X83907Y59173D01*
X83833Y59088D01*
X83946Y59080D01*
X84269Y59075D01*
Y55925D01*
X83946Y55920D01*
X83370Y55881D01*
X83118Y55847D01*
X82890Y55802D01*
X82686Y55748D01*
X82506Y55684D01*
X82349Y55610D01*
X82217Y55527D01*
X82109Y55433D01*
Y58373D01*
X80029Y60453D01*
X80172Y60463D01*
X80325Y60498D01*
X80488Y60556D01*
X80660Y60638D01*
X80843Y60744D01*
X81036Y60874D01*
X81238Y61028D01*
X81673Y61407D01*
X81905Y61633D01*
X84132Y59405D01*
D02*
G37*
G36*
X78563Y54920D02*
X78488Y54952D01*
X78385Y54981D01*
X78253Y55006D01*
X78092Y55028D01*
X77684Y55062D01*
X76524Y55089D01*
X75369Y58238D01*
X75692Y58245D01*
X76257Y58297D01*
X76499Y58342D01*
X76715Y58400D01*
X76904Y58471D01*
X77066Y58555D01*
X77201Y58652D01*
X77310Y58762D01*
X77392Y58885D01*
X78563Y54920D01*
D02*
G37*
G36*
X168999Y54767D02*
X169036Y54340D01*
X169099Y53963D01*
X169186Y53636D01*
X169299Y53360D01*
X169436Y53134D01*
X169599Y52958D01*
X169786Y52832D01*
X169999Y52757D01*
X170236Y52732D01*
X165236D01*
X165474Y52757D01*
X165686Y52832D01*
X165874Y52958D01*
X166036Y53134D01*
X166174Y53360D01*
X166286Y53636D01*
X166374Y53963D01*
X166436Y54340D01*
X166474Y54767D01*
X166486Y55244D01*
X168986D01*
X168999Y54767D01*
D02*
G37*
G36*
X148842Y53608D02*
X148895Y52836D01*
X148927Y52628D01*
X148966Y52446D01*
X149012Y52289D01*
X149065Y52157D01*
X149126Y52050D01*
X149193Y51968D01*
X145335D01*
X145402Y52050D01*
X145462Y52157D01*
X145515Y52289D01*
X145561Y52446D01*
X145600Y52628D01*
X145632Y52836D01*
X145675Y53325D01*
X145689Y53915D01*
X148839D01*
X148842Y53608D01*
D02*
G37*
G36*
X126049Y51781D02*
X125859Y51584D01*
X125541Y51204D01*
X125412Y51021D01*
X125303Y50843D01*
X125214Y50670D01*
X125145Y50502D01*
X125096Y50338D01*
X125067Y50180D01*
X125059Y50026D01*
X122526Y52559D01*
X122680Y52567D01*
X122838Y52596D01*
X123002Y52645D01*
X123170Y52714D01*
X123343Y52802D01*
X123521Y52912D01*
X123704Y53041D01*
X123891Y53190D01*
X124281Y53549D01*
X126049Y51781D01*
D02*
G37*
G36*
X120673Y48209D02*
X120557Y48311D01*
X120425Y48403D01*
X120275Y48485D01*
X120107Y48555D01*
X119922Y48615D01*
X119719Y48663D01*
X119499Y48701D01*
X119261Y48728D01*
X118732Y48750D01*
Y51250D01*
X119005Y51255D01*
X119499Y51299D01*
X119719Y51337D01*
X119922Y51385D01*
X120107Y51445D01*
X120275Y51515D01*
X120425Y51596D01*
X120557Y51688D01*
X120673Y51791D01*
Y48209D01*
D02*
G37*
G36*
X159770Y48420D02*
X159745Y48334D01*
X159723Y48219D01*
X159704Y48075D01*
X159675Y47704D01*
X159651Y46624D01*
X156501Y45778D01*
X156497Y46083D01*
X156459Y46617D01*
X156425Y46845D01*
X156382Y47047D01*
X156330Y47224D01*
X156268Y47375D01*
X156197Y47500D01*
X156116Y47599D01*
X156025Y47672D01*
X159798Y48479D01*
X159770Y48420D01*
D02*
G37*
G36*
X177355Y39854D02*
X174205Y39843D01*
Y42992D01*
X174805Y43008D01*
X175342Y43055D01*
X175816Y43134D01*
X176226Y43244D01*
X176574Y43386D01*
X176859Y43559D01*
X177080Y43764D01*
X177239Y44000D01*
X177334Y44268D01*
X177366Y44567D01*
X177355Y39854D01*
D02*
G37*
G36*
X22134Y34128D02*
X22482Y33825D01*
X22645Y33702D01*
X22800Y33599D01*
X22948Y33514D01*
X23087Y33448D01*
X23219Y33402D01*
X23344Y33374D01*
X23461Y33366D01*
X21122Y31028D01*
X21114Y31144D01*
X21086Y31269D01*
X21040Y31401D01*
X20974Y31541D01*
X20890Y31688D01*
X20786Y31843D01*
X20663Y32006D01*
X20361Y32354D01*
X20181Y32540D01*
X21949Y34307D01*
X22134Y34128D01*
D02*
G37*
G36*
X142602Y25834D02*
X142106Y25321D01*
X141326Y24400D01*
X141042Y23993D01*
X140828Y23622D01*
X140686Y23286D01*
X140614Y22986D01*
X140613Y22721D01*
X140682Y22492D01*
X140823Y22299D01*
X137299Y25822D01*
X137492Y25682D01*
X137721Y25613D01*
X137986Y25614D01*
X138286Y25686D01*
X138622Y25828D01*
X138993Y26042D01*
X139400Y26326D01*
X139843Y26681D01*
X140834Y27602D01*
X142602Y25834D01*
D02*
G37*
G36*
X125361Y26877D02*
X125858Y26467D01*
X126101Y26300D01*
X126339Y26160D01*
X126573Y26045D01*
X126803Y25956D01*
X127028Y25894D01*
X127249Y25857D01*
X127466Y25846D01*
X124154Y22534D01*
X124143Y22751D01*
X124106Y22972D01*
X124044Y23197D01*
X123955Y23427D01*
X123840Y23661D01*
X123700Y23899D01*
X123533Y24142D01*
X123341Y24388D01*
X123123Y24639D01*
X122879Y24894D01*
X125106Y27121D01*
X125361Y26877D01*
D02*
G37*
G36*
X120857Y22249D02*
X120894Y22028D01*
X120957Y21803D01*
X121045Y21573D01*
X121160Y21339D01*
X121300Y21101D01*
X121467Y20858D01*
X121659Y20612D01*
X121877Y20361D01*
X122121Y20106D01*
X119894Y17879D01*
X119639Y18123D01*
X119142Y18533D01*
X118899Y18700D01*
X118661Y18840D01*
X118427Y18955D01*
X118197Y19044D01*
X117972Y19106D01*
X117751Y19143D01*
X117534Y19154D01*
X120846Y22467D01*
X120857Y22249D01*
D02*
G37*
G36*
X125673Y154855D02*
X125479Y154996D01*
X125249Y155067D01*
X124984D01*
X124684Y154996D01*
X124348Y154855D01*
X123977Y154642D01*
X123570Y154359D01*
X123128Y154006D01*
X122138Y153087D01*
X120370Y154855D01*
X120865Y155367D01*
X121643Y156286D01*
X121926Y156693D01*
X122138Y157064D01*
X122279Y157400D01*
X122350Y157701D01*
Y157966D01*
X122279Y158196D01*
X122138Y158390D01*
X125673Y154855D01*
D02*
G37*
G36*
X113967Y144916D02*
X113760Y144697D01*
X113577Y144477D01*
X113417Y144257D01*
X113280Y144035D01*
X113167Y143812D01*
X113076Y143588D01*
X113009Y143363D01*
X112965Y143138D01*
X112945Y142911D01*
X112947Y142683D01*
X109876Y145450D01*
X110103Y145470D01*
X110329Y145511D01*
X110554Y145572D01*
X110778Y145654D01*
X111000Y145757D01*
X111222Y145880D01*
X111442Y146025D01*
X111662Y146190D01*
X111880Y146376D01*
X112098Y146582D01*
X113967Y144916D01*
D02*
G37*
G36*
X112961Y142242D02*
X112992Y142015D01*
X113045Y141789D01*
X113119Y141565D01*
X113216Y141341D01*
X113334Y141118D01*
X113475Y140897D01*
X113637Y140677D01*
X113822Y140457D01*
X114028Y140240D01*
X112260Y138472D01*
X112042Y138678D01*
X111823Y138863D01*
X111603Y139025D01*
X111382Y139166D01*
X111159Y139284D01*
X110935Y139381D01*
X110711Y139455D01*
X110485Y139508D01*
X110258Y139539D01*
X110029Y139547D01*
X112953Y142471D01*
X112961Y142242D01*
D02*
G37*
G36*
X120916Y133359D02*
X121296Y133041D01*
X121479Y132912D01*
X121657Y132802D01*
X121830Y132714D01*
X121998Y132645D01*
X122162Y132596D01*
X122320Y132568D01*
X122474Y132559D01*
X119941Y130026D01*
X119932Y130180D01*
X119904Y130338D01*
X119855Y130502D01*
X119786Y130670D01*
X119697Y130843D01*
X119588Y131021D01*
X119459Y131204D01*
X119310Y131392D01*
X118951Y131781D01*
X120719Y133549D01*
X120916Y133359D01*
D02*
G37*
G36*
X158517Y160976D02*
X158912Y160650D01*
X159105Y160518D01*
X159294Y160406D01*
X159480Y160315D01*
X159662Y160245D01*
X159842Y160195D01*
X160017Y160166D01*
X160190Y160157D01*
X157559Y157527D01*
X157551Y157699D01*
X157521Y157875D01*
X157472Y158054D01*
X157401Y158237D01*
X157310Y158423D01*
X157199Y158612D01*
X157067Y158804D01*
X156914Y159000D01*
X156741Y159199D01*
X156547Y159402D01*
X158315Y161170D01*
X158517Y160976D01*
D02*
G37*
G36*
X162882Y157301D02*
X162912Y157125D01*
X162961Y156946D01*
X163032Y156763D01*
X163123Y156577D01*
X163234Y156388D01*
X163366Y156196D01*
X163519Y156000D01*
X163692Y155801D01*
X163886Y155598D01*
X162118Y153830D01*
X161916Y154024D01*
X161521Y154350D01*
X161328Y154482D01*
X161139Y154594D01*
X160953Y154685D01*
X160771Y154755D01*
X160592Y154805D01*
X160416Y154834D01*
X160243Y154843D01*
X162874Y157473D01*
X162882Y157301D01*
D02*
G37*
G36*
X179756Y147020D02*
X179731Y147066D01*
X179656Y147108D01*
X179531Y147144D01*
X179356Y147176D01*
X179131Y147203D01*
X178531Y147242D01*
X177256Y147264D01*
Y149764D01*
X177733Y149776D01*
X178159Y149814D01*
X178536Y149876D01*
X178862Y149964D01*
X179138Y150076D01*
X179364Y150214D01*
X179540Y150376D01*
X179666Y150564D01*
X179742Y150776D01*
X179768Y151014D01*
X179756Y147020D01*
D02*
G37*
G36*
X191863Y178102D02*
X194577D01*
X194523Y178033D01*
X194474Y177939D01*
X194431Y177819D01*
X194394Y177674D01*
X194363Y177503D01*
X194317Y177084D01*
X194294Y176564D01*
X194291Y176265D01*
X191142D01*
X191140Y176417D01*
X190999Y176281D01*
X188939Y178676D01*
X189149Y178890D01*
X189773Y179593D01*
X189874Y179731D01*
X189954Y179855D01*
X190012Y179963D01*
X190048Y180056D01*
X190062Y180133D01*
X191863Y178102D01*
D02*
G37*
G36*
X186410Y171693D02*
X186194Y171473D01*
X185553Y170728D01*
X185448Y170576D01*
X185366Y170437D01*
X185306Y170312D01*
X185268Y170201D01*
X185253Y170104D01*
X182688Y172986D01*
X182799Y172990D01*
X182922Y173018D01*
X183057Y173069D01*
X183204Y173143D01*
X183364Y173241D01*
X183535Y173362D01*
X183914Y173673D01*
X184122Y173864D01*
X184341Y174078D01*
X186410Y171693D01*
D02*
G37*
G36*
X207365Y149725D02*
X206942Y149270D01*
X206563Y148797D01*
X206229Y148306D01*
X205940Y147796D01*
X205695Y147267D01*
X205494Y146720D01*
X205338Y146155D01*
X205227Y145571D01*
X205160Y144969D01*
X205138Y144348D01*
X201988D01*
X201966Y144969D01*
X201899Y145571D01*
X201788Y146155D01*
X201632Y146720D01*
X201431Y147267D01*
X201186Y147796D01*
X200897Y148306D01*
X200563Y148797D01*
X200184Y149270D01*
X199761Y149725D01*
X201336Y152604D01*
X201781Y152204D01*
X202227Y151892D01*
X202672Y151669D01*
X203118Y151535D01*
X203563Y151491D01*
X204008Y151535D01*
X204454Y151669D01*
X204899Y151892D01*
X205345Y152204D01*
X205790Y152604D01*
X207365Y149725D01*
D02*
G37*
G36*
X170384Y142386D02*
X170416Y142286D01*
X170471Y142171D01*
X170547Y142041D01*
X170646Y141898D01*
X170910Y141570D01*
X171262Y141186D01*
X171471Y140972D01*
X169244Y138745D01*
X169031Y138954D01*
X168318Y139570D01*
X168175Y139669D01*
X168046Y139746D01*
X167931Y139800D01*
X167830Y139832D01*
X167743Y139843D01*
X170374Y142473D01*
X170384Y142386D01*
D02*
G37*
G36*
X176186Y136262D02*
X176898Y135646D01*
X177041Y135547D01*
X177171Y135471D01*
X177286Y135416D01*
X177386Y135384D01*
X177473Y135374D01*
X174843Y132743D01*
X174832Y132830D01*
X174800Y132931D01*
X174746Y133046D01*
X174669Y133175D01*
X174570Y133318D01*
X174307Y133647D01*
X173954Y134031D01*
X173745Y134244D01*
X175972Y136471D01*
X176186Y136262D01*
D02*
G37*
G36*
X179467Y134522D02*
X179561Y134474D01*
X179681Y134431D01*
X179826Y134394D01*
X179997Y134363D01*
X180416Y134317D01*
X180936Y134294D01*
X181235Y134291D01*
Y131142D01*
X180936Y131139D01*
X179997Y131070D01*
X179826Y131039D01*
X179681Y131002D01*
X179561Y130959D01*
X179467Y130911D01*
X179398Y130856D01*
Y134577D01*
X179467Y134522D01*
D02*
G37*
G36*
X205138Y136519D02*
X205160Y135898D01*
X205227Y135295D01*
X205338Y134712D01*
X205494Y134146D01*
X205695Y133599D01*
X205940Y133071D01*
X206229Y132561D01*
X206563Y132070D01*
X206942Y131596D01*
X207365Y131142D01*
X205138Y128915D01*
X204683Y129338D01*
X204210Y129716D01*
X203718Y130051D01*
X203208Y130340D01*
X202680Y130585D01*
X202133Y130785D01*
X201568Y130941D01*
X200984Y131053D01*
X200382Y131120D01*
X199761Y131142D01*
X198839Y134291D01*
X199437Y134323D01*
X199972Y134417D01*
X200445Y134575D01*
X200854Y134795D01*
X201201Y135079D01*
X201484Y135425D01*
X201705Y135835D01*
X201862Y136307D01*
X201957Y136843D01*
X201988Y137441D01*
X205138Y136519D01*
D02*
G37*
G36*
X210131Y128388D02*
X210396Y128162D01*
X210659Y127963D01*
X210920Y127791D01*
X211181Y127646D01*
X211440Y127527D01*
X211698Y127436D01*
X211955Y127371D01*
X212210Y127333D01*
X212465Y127323D01*
X208957Y123815D01*
X208946Y124069D01*
X208908Y124325D01*
X208844Y124581D01*
X208752Y124839D01*
X208634Y125099D01*
X208488Y125359D01*
X208316Y125621D01*
X208117Y125884D01*
X207891Y126148D01*
X207639Y126414D01*
X209866Y128641D01*
X210131Y128388D01*
D02*
G37*
G36*
X134546Y139830D02*
X134334Y139754D01*
X134146Y139629D01*
X133984Y139454D01*
X133846Y139230D01*
X133733Y138954D01*
X133646Y138629D01*
X133583Y138254D01*
X133546Y137829D01*
X133534Y137355D01*
X131034D01*
X131021Y137829D01*
X130983Y138254D01*
X130921Y138629D01*
X130833Y138954D01*
X130721Y139230D01*
X130584Y139454D01*
X130421Y139629D01*
X130234Y139754D01*
X130021Y139830D01*
X129783Y139855D01*
X134783D01*
X134546Y139830D01*
D02*
G37*
G36*
X126815Y122547D02*
X126319Y122033D01*
X125538Y121113D01*
X125254Y120706D01*
X125041Y120334D01*
X124898Y119999D01*
X124827Y119698D01*
X124825Y119434D01*
X124895Y119205D01*
X125035Y119011D01*
X121511Y122535D01*
X121705Y122395D01*
X121934Y122325D01*
X122198Y122327D01*
X122499Y122398D01*
X122834Y122541D01*
X123206Y122754D01*
X123613Y123038D01*
X124055Y123393D01*
X125047Y124315D01*
X126815Y122547D01*
D02*
G37*
G36*
X122626Y117438D02*
X122587Y117394D01*
X122553Y117320D01*
X122523Y117216D01*
X122498Y117083D01*
X122477Y116921D01*
X122450Y116507D01*
X122441Y115974D01*
X119941D01*
X119953Y117453D01*
X122669D01*
X122626Y117438D01*
D02*
G37*
G36*
X116386Y109402D02*
X116192Y109199D01*
X115866Y108804D01*
X115734Y108612D01*
X115623Y108423D01*
X115532Y108237D01*
X115461Y108054D01*
X115412Y107875D01*
X115383Y107699D01*
X115374Y107527D01*
X112743Y110157D01*
X112916Y110166D01*
X113092Y110195D01*
X113271Y110245D01*
X113453Y110315D01*
X113639Y110406D01*
X113828Y110518D01*
X114021Y110650D01*
X114217Y110802D01*
X114416Y110976D01*
X114618Y111170D01*
X116386Y109402D01*
D02*
G37*
D25*
X217421Y60000D02*
D03*
X17579Y70000D02*
D03*
X27343Y155000D02*
D03*
X207579Y152500D02*
D03*
D26*
Y60000D02*
D03*
X27421Y70000D02*
D03*
X17500Y155000D02*
D03*
X217421Y152500D02*
D03*
D27*
X73484Y31004D02*
D03*
D28*
X43484Y41004D02*
D03*
X23484Y31004D02*
D03*
D32*
X55000Y63256D02*
D03*
D33*
Y101744D02*
D03*
D36*
X115779Y166721D02*
X150996D01*
X112500Y170000D02*
X115779Y166721D01*
X107500Y170000D02*
X112500D01*
X104596Y172904D02*
X107500Y170000D01*
X102500Y177500D02*
X104596Y175403D01*
Y172904D02*
Y175403D01*
X25000Y122500D02*
X50955Y96544D01*
X15000Y122500D02*
X25000D01*
X50955Y96544D02*
X66328D01*
X7978Y46510D02*
Y115478D01*
X15000Y122500D01*
X165217Y152500D02*
X172008D01*
X175994Y148514D01*
X160216Y157500D02*
X165217Y152500D01*
X150996Y166721D02*
X160216Y157500D01*
X135997Y55997D02*
X152500Y72500D01*
X128497Y55997D02*
X135997D01*
X152500Y72500D02*
Y87518D01*
X154982Y90000D01*
X155000D02*
X162284Y97284D01*
X177500D01*
X154982Y90000D02*
X155000D01*
X72500Y91221D02*
X82500Y101221D01*
X72500Y130000D02*
X82500Y120000D01*
Y101221D02*
Y120000D01*
X170217Y65000D02*
X195323Y39894D01*
X167736Y50000D02*
Y61758D01*
X170217Y64238D01*
X145437Y30437D02*
X187937D01*
X135404Y23864D02*
X136767Y22500D01*
X137500D02*
X145437Y30437D01*
X187937D02*
X195323Y37823D01*
X136767Y22500D02*
X137500D01*
X195323Y37823D02*
Y39894D01*
X72500Y85000D02*
X80000Y77500D01*
X72500Y85000D02*
Y91221D01*
Y130000D02*
Y168535D01*
X73965Y170000D01*
X82500D01*
X96863Y155637D01*
Y63562D02*
Y155637D01*
X170217Y64238D02*
Y65000D01*
X175994Y148514D02*
X181250D01*
X182500Y149764D01*
X122500Y120000D02*
X132283Y129783D01*
Y142500D01*
X121191Y115974D02*
Y118691D01*
X112716Y107500D02*
X121191Y115974D01*
Y118691D02*
X122500Y120000D01*
X110000Y142500D02*
X122500Y130000D01*
X123399Y70000D02*
X129783D01*
X134783Y65000D01*
X120899Y67500D02*
X123399Y70000D01*
X110000Y67500D02*
X120899D01*
X122500Y50000D02*
X128497Y55997D01*
X7978Y46510D02*
X23484Y31004D01*
X110425Y50000D02*
X122500D01*
X96863Y63562D02*
X110425Y50000D01*
X117500Y60000D02*
X122500D01*
X110000Y67500D02*
X117500Y60000D01*
X160539Y114245D02*
Y119678D01*
Y114245D02*
X177500Y97284D01*
X160000Y120217D02*
X160539Y119678D01*
X66328Y96544D02*
X77284Y107500D01*
X110000Y142500D02*
Y142717D01*
X124784Y157500D01*
X55000Y101744D02*
Y112284D01*
D37*
X167736Y50000D02*
D03*
D38*
X147264D02*
D03*
X157500D02*
D03*
X182500Y170236D02*
D03*
Y160000D02*
D03*
D39*
Y149764D02*
D03*
D40*
X137500Y22500D02*
D03*
X102500Y177500D02*
D03*
D41*
X127500Y22500D02*
D03*
X117500D02*
D03*
X122500Y177500D02*
D03*
X112500D02*
D03*
D42*
X122500Y130000D02*
D03*
Y50000D02*
D03*
D43*
Y120000D02*
D03*
Y60000D02*
D03*
D44*
X15000Y15000D02*
D03*
X215000D02*
D03*
Y180000D02*
D03*
X17500D02*
D03*
D45*
X180000Y77933D02*
D03*
X192717Y180000D02*
D03*
X55000Y147716D02*
D03*
X160216Y157500D02*
D03*
X167717Y142500D02*
D03*
X112716Y107500D02*
D03*
X177500Y132717D02*
D03*
X160000Y120217D02*
D03*
X170217Y65000D02*
D03*
D46*
X180000Y42500D02*
D03*
X55000Y112284D02*
D03*
X177500Y97284D02*
D03*
X160000Y84784D02*
D03*
D47*
X80000Y162500D02*
D03*
Y87500D02*
D03*
D48*
Y152500D02*
D03*
Y142500D02*
D03*
Y132500D02*
D03*
X110000Y162500D02*
D03*
Y152500D02*
D03*
Y142500D02*
D03*
Y132500D02*
D03*
X80000Y77500D02*
D03*
Y67500D02*
D03*
Y57500D02*
D03*
X110000Y87500D02*
D03*
Y77500D02*
D03*
Y67500D02*
D03*
Y57500D02*
D03*
D49*
X157283Y180000D02*
D03*
X124784Y157500D02*
D03*
X132283Y142500D02*
D03*
X77284Y107500D02*
D03*
X134783Y65000D02*
D03*
D50*
X212500Y110000D02*
D03*
Y123779D02*
D03*
X20000Y115000D02*
D03*
Y101221D02*
D03*
D51*
X212500Y96220D02*
D03*
X20000Y128779D02*
D03*
D52*
X157500Y50000D02*
Y62500D01*
X167500Y72500D01*
X182726Y170236D02*
X192490Y180000D01*
X192717D01*
X182500Y170236D02*
X182726D01*
X192717Y158997D02*
Y180000D01*
Y158997D02*
X203563Y148150D01*
X207579Y152166D01*
Y152500D01*
X203563Y132717D02*
Y148150D01*
Y132717D02*
X212500Y123779D01*
X177500Y132717D02*
X203563D01*
X167717Y142500D02*
X177500Y132717D01*
X167500Y72500D02*
X174374D01*
X179511Y77933D02*
X180586D01*
X172308Y82908D02*
X174536D01*
X179511Y77933D01*
X170433Y84784D02*
X172308Y82908D01*
X160000Y84784D02*
X170433D01*
X183302Y75217D02*
X192362D01*
X180586Y77933D02*
X183302Y75217D01*
X192362D02*
X207579Y60000D01*
X185465Y82908D02*
X187692D01*
X180489Y77933D02*
X185465Y82908D01*
X187692D02*
X201004Y96220D01*
X212500D01*
X171043Y39783D02*
X172677Y41417D01*
X178917D01*
X180000Y42500D01*
X162716Y39783D02*
X171043D01*
X158076Y44424D02*
X162716Y39783D01*
X158076Y44424D02*
Y49424D01*
X157500Y50000D02*
X158076Y49424D01*
X174374Y72500D02*
X200000Y46874D01*
X87500Y182896D02*
X90396D01*
X92500Y185000D01*
X110000D01*
X111698Y178302D02*
Y183302D01*
X110000Y185000D02*
X111698Y183302D01*
Y178302D02*
X112500Y177500D01*
X20000Y87500D02*
X28750Y78750D01*
X20000Y87500D02*
Y101221D01*
X27421Y77421D02*
X28750Y78750D01*
X50836Y56664D01*
X80000D01*
X75397Y182896D02*
X87500D01*
Y175000D02*
Y182896D01*
Y175000D02*
X110000Y152500D01*
X200000Y35000D02*
Y46874D01*
X180000Y15000D02*
X200000Y35000D01*
X125000Y15000D02*
X180000D01*
X117500Y22500D02*
X125000Y15000D01*
X80000Y57500D02*
X87500Y65000D01*
X80000Y132500D02*
X87500Y125000D01*
Y65000D02*
Y125000D01*
X55000Y147716D02*
X62500Y155217D01*
Y170000D01*
X75397Y182896D01*
X102500Y85000D02*
Y145000D01*
Y85000D02*
X110000Y77500D01*
X102500Y145000D02*
X110000Y152500D01*
X160000Y72500D02*
Y84784D01*
X147264Y59764D02*
X160000Y72500D01*
X147264Y50000D02*
Y59764D01*
X174166Y168334D02*
X182500Y160000D01*
X168949Y168334D02*
X174166D01*
X157283Y180000D02*
X168949Y168334D01*
X80000Y57500D02*
X87500D01*
X103709Y41291D01*
X108709D01*
X127500Y22500D01*
X27343Y155000D02*
X34626Y147716D01*
X55000D01*
X45949Y138665D02*
X54313Y147030D01*
X37436Y128779D02*
X45949Y137292D01*
Y138665D01*
X27421Y70000D02*
Y77421D01*
X20000Y128779D02*
X37436D01*
X122500Y177500D02*
X154783D01*
X157283Y180000D01*
M02*
